<svg xmlns="http://www.w3.org/2000/svg" xmlns:xlink="http://www.w3.org/1999/xlink" width="800" zoomAndPan="magnify" viewBox="0 0 600 599.999999" height="800" preserveAspectRatio="xMidYMid meet" version="1.0"><defs><g/><clipPath id="3d01ccf9cf"><path d="M 195 120 L 405 120 L 405 300.300781 L 195 300.300781 Z M 195 120 " clip-rule="nonzero"/></clipPath></defs><g clip-path="url(#3d01ccf9cf)"><path fill="#d76b73" d="M 395.011719 143.332031 C 379.820312 119.351562 348.132812 117.421875 328.335938 124.214844 C 312.976562 129.5 301.925781 144.171875 300 146.6875 C 298.074219 144.171875 287.441406 129.792969 272.082031 124.550781 C 252.285156 117.757812 220.179688 119.351562 204.988281 143.332031 C 198.960938 152.851562 180 183.625 221.101562 231.167969 C 221.101562 231.167969 259.984375 276.152344 295.898438 297.914062 C 297.53125 298.875 299.625 300.175781 299.789062 300.09375 C 299.957031 300.175781 302.261719 298.917969 303.890625 297.914062 C 339.804688 276.152344 378.898438 231.167969 378.898438 231.167969 C 420 183.625 401.039062 152.851562 395.011719 143.332031 Z M 395.011719 143.332031 " fill-opacity="1" fill-rule="nonzero"/></g><path fill="#ffffff" d="M 293.429688 255.316406 C 292.003906 255.316406 290.707031 254.4375 290.207031 253.050781 L 265.636719 187.355469 L 256.34375 217.246094 C 255.882812 218.671875 254.542969 219.761719 253.039062 219.761719 L 226.667969 219.761719 C 224.742188 219.761719 223.195312 218.128906 223.195312 216.199219 C 223.195312 214.269531 224.742188 212.636719 226.667969 212.636719 L 250.484375 212.636719 L 262.035156 175.617188 C 262.496094 174.191406 263.753906 173.226562 265.261719 173.183594 C 266.765625 173.140625 268.0625 174.066406 268.609375 175.449219 L 292.882812 240.347656 L 305.652344 191.296875 C 306.027344 189.871094 307.242188 188.863281 308.664062 188.738281 C 310.085938 188.613281 311.46875 189.367188 312.097656 190.710938 L 322.265625 212.132812 L 333.441406 167.230469 C 333.820312 165.761719 335.117188 164.671875 336.625 164.632812 C 338.128906 164.546875 339.554688 165.511719 340.054688 166.9375 L 348.257812 190.289062 L 380.027344 190.375 C 381.953125 190.375 383.460938 191.671875 383.460938 193.558594 C 383.460938 195.488281 381.910156 196.746094 379.984375 196.746094 L 345.75 196.914062 C 344.285156 196.914062 342.984375 196.117188 342.484375 194.734375 L 337.292969 180.019531 L 326.535156 223.117188 C 326.203125 224.542969 324.988281 225.589844 323.523438 225.757812 C 322.058594 225.882812 320.675781 225.128906 320.046875 223.789062 L 309.792969 202.238281 L 296.652344 252.71875 C 296.273438 254.183594 294.976562 255.230469 293.46875 255.316406 C 293.554688 255.316406 293.511719 255.316406 293.429688 255.316406 Z M 293.429688 255.316406 " fill-opacity="1" fill-rule="nonzero"/><path fill="#ffffff" d="M 233.785156 215.445312 C 233.785156 215.9375 233.738281 216.425781 233.640625 216.910156 C 233.542969 217.390625 233.402344 217.863281 233.214844 218.316406 C 233.027344 218.773438 232.796875 219.203125 232.523438 219.613281 C 232.25 220.023438 231.9375 220.402344 231.589844 220.75 C 231.242188 221.101562 230.863281 221.410156 230.453125 221.683594 C 230.046875 221.957031 229.613281 222.191406 229.160156 222.378906 C 228.703125 222.566406 228.238281 222.710938 227.753906 222.804688 C 227.269531 222.902344 226.785156 222.949219 226.292969 222.949219 C 225.800781 222.949219 225.3125 222.902344 224.832031 222.804688 C 224.347656 222.710938 223.878906 222.566406 223.425781 222.378906 C 222.96875 222.191406 222.539062 221.957031 222.128906 221.683594 C 221.722656 221.410156 221.34375 221.101562 220.996094 220.75 C 220.648438 220.402344 220.335938 220.023438 220.0625 219.613281 C 219.789062 219.203125 219.558594 218.773438 219.371094 218.316406 C 219.183594 217.863281 219.039062 217.390625 218.945312 216.910156 C 218.847656 216.425781 218.800781 215.9375 218.800781 215.445312 C 218.800781 214.953125 218.847656 214.464844 218.945312 213.980469 C 219.039062 213.496094 219.183594 213.027344 219.371094 212.574219 C 219.558594 212.117188 219.789062 211.683594 220.0625 211.277344 C 220.335938 210.867188 220.648438 210.488281 220.996094 210.136719 C 221.34375 209.789062 221.722656 209.480469 222.128906 209.207031 C 222.539062 208.929688 222.96875 208.699219 223.425781 208.511719 C 223.878906 208.324219 224.347656 208.179688 224.832031 208.085938 C 225.3125 207.988281 225.800781 207.941406 226.292969 207.941406 C 226.785156 207.941406 227.269531 207.988281 227.753906 208.085938 C 228.238281 208.179688 228.703125 208.324219 229.160156 208.511719 C 229.613281 208.699219 230.046875 208.929688 230.453125 209.207031 C 230.863281 209.480469 231.242188 209.789062 231.589844 210.136719 C 231.9375 210.488281 232.25 210.867188 232.523438 211.277344 C 232.796875 211.683594 233.027344 212.117188 233.214844 212.574219 C 233.402344 213.027344 233.542969 213.496094 233.640625 213.980469 C 233.738281 214.464844 233.785156 214.953125 233.785156 215.445312 Z M 233.785156 215.445312 " fill-opacity="1" fill-rule="nonzero"/><path fill="#ffffff" d="M 390.785156 193.6875 C 390.785156 194.179688 390.738281 194.667969 390.640625 195.148438 C 390.542969 195.632812 390.402344 196.101562 390.214844 196.558594 C 390.027344 197.011719 389.796875 197.445312 389.523438 197.855469 C 389.25 198.265625 388.9375 198.644531 388.589844 198.992188 C 388.242188 199.339844 387.863281 199.652344 387.453125 199.925781 C 387.046875 200.199219 386.613281 200.429688 386.160156 200.621094 C 385.707031 200.808594 385.238281 200.949219 384.753906 201.046875 C 384.273438 201.140625 383.785156 201.191406 383.292969 201.191406 C 382.800781 201.191406 382.3125 201.140625 381.832031 201.046875 C 381.347656 200.949219 380.878906 200.808594 380.425781 200.621094 C 379.972656 200.429688 379.539062 200.199219 379.128906 199.925781 C 378.722656 199.652344 378.34375 199.339844 377.996094 198.992188 C 377.648438 198.644531 377.335938 198.265625 377.0625 197.855469 C 376.789062 197.445312 376.558594 197.011719 376.371094 196.558594 C 376.183594 196.101562 376.039062 195.632812 375.945312 195.148438 C 375.847656 194.667969 375.800781 194.179688 375.800781 193.6875 C 375.800781 193.191406 375.847656 192.707031 375.945312 192.222656 C 376.039062 191.738281 376.183594 191.269531 376.371094 190.8125 C 376.558594 190.359375 376.789062 189.925781 377.0625 189.515625 C 377.335938 189.105469 377.648438 188.726562 377.996094 188.378906 C 378.34375 188.03125 378.722656 187.71875 379.128906 187.445312 C 379.539062 187.171875 379.972656 186.941406 380.425781 186.753906 C 380.878906 186.5625 381.347656 186.421875 381.832031 186.324219 C 382.3125 186.230469 382.800781 186.179688 383.292969 186.179688 C 383.785156 186.179688 384.273438 186.230469 384.753906 186.324219 C 385.238281 186.421875 385.707031 186.5625 386.160156 186.753906 C 386.613281 186.941406 387.046875 187.171875 387.453125 187.445312 C 387.863281 187.71875 388.242188 188.03125 388.589844 188.378906 C 388.9375 188.726562 389.25 189.105469 389.523438 189.515625 C 389.796875 189.925781 390.027344 190.359375 390.214844 190.8125 C 390.402344 191.269531 390.542969 191.738281 390.640625 192.222656 C 390.738281 192.707031 390.785156 193.191406 390.785156 193.6875 Z M 390.785156 193.6875 " fill-opacity="1" fill-rule="nonzero"/><g fill="#000000" fill-opacity="1"><g transform="translate(86.064203, 358.474427)"><g><path d="M 19.1875 -22.328125 L 8.703125 -22.328125 L 7.734375 -14.390625 L 16.578125 -14.390625 L 16.09375 -10.671875 L 7.28125 -10.671875 L 5.96875 0 L 1.265625 0 L 4.46875 -26.046875 L 19.65625 -26.046875 Z M 19.1875 -22.328125 "/></g></g></g><g fill="#000000" fill-opacity="1"><g transform="translate(106.208353, 358.474427)"><g><path d="M 6.390625 -3.875 L 15.875 -3.875 L 15.421875 0 L 1.265625 0 L 4.46875 -26.046875 L 9.140625 -26.046875 Z M 6.390625 -3.875 "/></g></g></g><g fill="#000000" fill-opacity="1"><g transform="translate(124.91107, 358.474427)"><g><path d="M 22.28125 0 L 18.671875 0 C 18.253906 0 17.925781 -0.09375 17.6875 -0.28125 C 17.445312 -0.476562 17.296875 -0.738281 17.234375 -1.0625 L 16.15625 -6.5 L 6.453125 -6.5 L 4.03125 -1.0625 C 3.90625 -0.789062 3.691406 -0.546875 3.390625 -0.328125 C 3.085938 -0.109375 2.75 0 2.375 0 L -1.296875 0 L 11.296875 -26.046875 L 16.0625 -26.046875 Z M 7.90625 -9.796875 L 15.5 -9.796875 L 13.734375 -18.71875 C 13.628906 -19.144531 13.53125 -19.597656 13.4375 -20.078125 C 13.34375 -20.566406 13.253906 -21.109375 13.171875 -21.703125 C 12.941406 -21.109375 12.710938 -20.554688 12.484375 -20.046875 C 12.265625 -19.535156 12.0625 -19.085938 11.875 -18.703125 Z M 7.90625 -9.796875 "/></g></g></g><g fill="#000000" fill-opacity="1"><g transform="translate(149.577694, 358.474427)"><g><path d="M 14.859375 -10.40625 C 14.972656 -10.09375 15.070312 -9.773438 15.15625 -9.453125 C 15.238281 -9.128906 15.320312 -8.800781 15.40625 -8.46875 C 15.550781 -8.800781 15.707031 -9.128906 15.875 -9.453125 C 16.039062 -9.773438 16.21875 -10.09375 16.40625 -10.40625 L 25.453125 -25.296875 C 25.566406 -25.472656 25.675781 -25.613281 25.78125 -25.71875 C 25.894531 -25.820312 26.015625 -25.894531 26.140625 -25.9375 C 26.273438 -25.988281 26.421875 -26.019531 26.578125 -26.03125 C 26.734375 -26.039062 26.910156 -26.046875 27.109375 -26.046875 L 30.65625 -26.046875 L 27.453125 0 L 23.34375 0 L 25.4375 -16.96875 C 25.46875 -17.28125 25.519531 -17.625 25.59375 -18 C 25.664062 -18.375 25.742188 -18.75 25.828125 -19.125 L 16.875 -4.25 C 16.675781 -3.914062 16.421875 -3.664062 16.109375 -3.5 C 15.804688 -3.332031 15.472656 -3.25 15.109375 -3.25 L 14.46875 -3.25 C 14.101562 -3.25 13.785156 -3.332031 13.515625 -3.5 C 13.242188 -3.664062 13.050781 -3.914062 12.9375 -4.25 L 7.5625 -19.078125 C 7.550781 -18.703125 7.535156 -18.335938 7.515625 -17.984375 C 7.503906 -17.640625 7.476562 -17.328125 7.4375 -17.046875 L 5.390625 0 L 1.265625 0 L 4.46875 -26.046875 L 7.984375 -26.046875 C 8.179688 -26.046875 8.359375 -26.039062 8.515625 -26.03125 C 8.671875 -26.019531 8.804688 -25.988281 8.921875 -25.9375 C 9.046875 -25.894531 9.148438 -25.820312 9.234375 -25.71875 C 9.328125 -25.613281 9.40625 -25.472656 9.46875 -25.296875 Z M 14.859375 -10.40625 "/></g></g></g><g fill="#000000" fill-opacity="1"><g transform="translate(182.028015, 358.474427)"><g><path d="M 6.484375 0 L 1.78125 0 L 4.96875 -26.046875 L 9.671875 -26.046875 Z M 6.484375 0 "/></g></g></g><g fill="#000000" fill-opacity="1"><g transform="translate(194.028105, 358.474427)"><g><path d="M 6.921875 -26.046875 C 7.117188 -26.046875 7.285156 -26.035156 7.421875 -26.015625 C 7.566406 -26.003906 7.691406 -25.96875 7.796875 -25.90625 C 7.910156 -25.851562 8.007812 -25.78125 8.09375 -25.6875 C 8.175781 -25.59375 8.265625 -25.460938 8.359375 -25.296875 L 18.5 -7.515625 C 18.519531 -7.859375 18.546875 -8.195312 18.578125 -8.53125 C 18.609375 -8.863281 18.644531 -9.171875 18.6875 -9.453125 L 20.71875 -26.046875 L 24.84375 -26.046875 L 21.625 0 L 19.21875 0 C 18.863281 0 18.554688 -0.0546875 18.296875 -0.171875 C 18.046875 -0.285156 17.835938 -0.5 17.671875 -0.8125 L 7.578125 -18.59375 C 7.554688 -18.300781 7.53125 -18.019531 7.5 -17.75 C 7.476562 -17.476562 7.457031 -17.222656 7.4375 -16.984375 L 5.390625 0 L 1.265625 0 L 4.46875 -26.046875 Z M 6.921875 -26.046875 "/></g></g></g><g fill="#000000" fill-opacity="1"><g transform="translate(220.658667, 358.474427)"><g><path d="M 12.734375 -3.4375 C 13.710938 -3.4375 14.570312 -3.53125 15.3125 -3.71875 C 16.0625 -3.90625 16.773438 -4.164062 17.453125 -4.5 L 18.0625 -9.46875 L 15.1875 -9.46875 C 14.90625 -9.46875 14.691406 -9.535156 14.546875 -9.671875 C 14.398438 -9.816406 14.328125 -10 14.328125 -10.21875 L 14.625 -12.984375 L 22.734375 -12.984375 L 21.4375 -2.515625 C 20.113281 -1.554688 18.6875 -0.847656 17.15625 -0.390625 C 15.632812 0.0546875 13.894531 0.28125 11.9375 0.28125 C 10.34375 0.28125 8.894531 -0.00390625 7.59375 -0.578125 C 6.289062 -1.148438 5.171875 -1.945312 4.234375 -2.96875 C 3.304688 -4 2.585938 -5.21875 2.078125 -6.625 C 1.578125 -8.039062 1.328125 -9.585938 1.328125 -11.265625 C 1.328125 -12.722656 1.488281 -14.109375 1.8125 -15.421875 C 2.144531 -16.742188 2.609375 -17.960938 3.203125 -19.078125 C 3.796875 -20.191406 4.507812 -21.195312 5.34375 -22.09375 C 6.175781 -22.988281 7.109375 -23.75 8.140625 -24.375 C 9.179688 -25.007812 10.300781 -25.492188 11.5 -25.828125 C 12.707031 -26.171875 13.972656 -26.34375 15.296875 -26.34375 C 16.347656 -26.34375 17.304688 -26.25 18.171875 -26.0625 C 19.035156 -25.875 19.816406 -25.617188 20.515625 -25.296875 C 21.210938 -24.972656 21.835938 -24.59375 22.390625 -24.15625 C 22.941406 -23.726562 23.4375 -23.273438 23.875 -22.796875 L 22.359375 -20.84375 C 22.035156 -20.425781 21.648438 -20.21875 21.203125 -20.21875 C 20.929688 -20.21875 20.664062 -20.300781 20.40625 -20.46875 C 20.007812 -20.726562 19.625 -20.972656 19.25 -21.203125 C 18.882812 -21.429688 18.488281 -21.628906 18.0625 -21.796875 C 17.644531 -21.960938 17.1875 -22.09375 16.6875 -22.1875 C 16.1875 -22.289062 15.609375 -22.34375 14.953125 -22.34375 C 13.648438 -22.34375 12.457031 -22.078125 11.375 -21.546875 C 10.300781 -21.023438 9.375 -20.285156 8.59375 -19.328125 C 7.8125 -18.378906 7.203125 -17.234375 6.765625 -15.890625 C 6.335938 -14.554688 6.125 -13.066406 6.125 -11.421875 C 6.125 -10.171875 6.28125 -9.050781 6.59375 -8.0625 C 6.914062 -7.082031 7.363281 -6.25 7.9375 -5.5625 C 8.519531 -4.882812 9.210938 -4.359375 10.015625 -3.984375 C 10.828125 -3.617188 11.734375 -3.4375 12.734375 -3.4375 Z M 12.734375 -3.4375 "/></g></g></g><g fill="#000000" fill-opacity="1"><g transform="translate(246.118071, 358.474427)"><g/></g></g><g fill="#000000" fill-opacity="1"><g transform="translate(254.622702, 358.474427)"><g><path d="M 12.21875 -3.671875 C 12.945312 -3.671875 13.582031 -3.726562 14.125 -3.84375 C 14.675781 -3.957031 15.148438 -4.101562 15.546875 -4.28125 C 15.953125 -4.46875 16.300781 -4.660156 16.59375 -4.859375 C 16.882812 -5.054688 17.132812 -5.242188 17.34375 -5.421875 C 17.5625 -5.597656 17.753906 -5.742188 17.921875 -5.859375 C 18.085938 -5.972656 18.257812 -6.03125 18.4375 -6.03125 C 18.570312 -6.03125 18.6875 -6 18.78125 -5.9375 C 18.882812 -5.882812 18.96875 -5.828125 19.03125 -5.765625 L 20.65625 -3.734375 C 19.53125 -2.429688 18.203125 -1.4375 16.671875 -0.75 C 15.148438 -0.0625 13.398438 0.28125 11.421875 0.28125 C 9.828125 0.28125 8.40625 0 7.15625 -0.5625 C 5.90625 -1.132812 4.847656 -1.925781 3.984375 -2.9375 C 3.117188 -3.945312 2.457031 -5.140625 2 -6.515625 C 1.550781 -7.898438 1.328125 -9.410156 1.328125 -11.046875 C 1.328125 -12.546875 1.488281 -13.960938 1.8125 -15.296875 C 2.144531 -16.640625 2.609375 -17.878906 3.203125 -19.015625 C 3.804688 -20.148438 4.523438 -21.164062 5.359375 -22.0625 C 6.203125 -22.96875 7.132812 -23.738281 8.15625 -24.375 C 9.175781 -25.007812 10.273438 -25.492188 11.453125 -25.828125 C 12.640625 -26.171875 13.878906 -26.34375 15.171875 -26.34375 C 16.117188 -26.34375 16.984375 -26.253906 17.765625 -26.078125 C 18.546875 -25.898438 19.253906 -25.65625 19.890625 -25.34375 C 20.523438 -25.03125 21.09375 -24.65625 21.59375 -24.21875 C 22.101562 -23.78125 22.5625 -23.289062 22.96875 -22.75 L 21.34375 -20.8125 C 21.226562 -20.664062 21.085938 -20.535156 20.921875 -20.421875 C 20.765625 -20.316406 20.566406 -20.265625 20.328125 -20.265625 C 20.054688 -20.265625 19.800781 -20.375 19.5625 -20.59375 C 19.320312 -20.8125 19.019531 -21.046875 18.65625 -21.296875 C 18.289062 -21.554688 17.816406 -21.796875 17.234375 -22.015625 C 16.648438 -22.234375 15.882812 -22.34375 14.9375 -22.34375 C 13.6875 -22.34375 12.523438 -22.085938 11.453125 -21.578125 C 10.390625 -21.066406 9.457031 -20.335938 8.65625 -19.390625 C 7.863281 -18.441406 7.242188 -17.296875 6.796875 -15.953125 C 6.347656 -14.609375 6.125 -13.101562 6.125 -11.4375 C 6.125 -10.226562 6.273438 -9.140625 6.578125 -8.171875 C 6.890625 -7.210938 7.316406 -6.398438 7.859375 -5.734375 C 8.398438 -5.066406 9.039062 -4.554688 9.78125 -4.203125 C 10.53125 -3.847656 11.34375 -3.671875 12.21875 -3.671875 Z M 12.21875 -3.671875 "/></g></g></g><g fill="#000000" fill-opacity="1"><g transform="translate(277.919971, 358.474427)"><g><path d="M 26.046875 -14.765625 C 26.046875 -13.328125 25.882812 -11.957031 25.5625 -10.65625 C 25.25 -9.351562 24.796875 -8.140625 24.203125 -7.015625 C 23.609375 -5.898438 22.894531 -4.890625 22.0625 -3.984375 C 21.226562 -3.085938 20.289062 -2.320312 19.25 -1.6875 C 18.207031 -1.050781 17.078125 -0.5625 15.859375 -0.21875 C 14.648438 0.113281 13.378906 0.28125 12.046875 0.28125 C 10.390625 0.28125 8.898438 -0.0078125 7.578125 -0.59375 C 6.265625 -1.1875 5.140625 -2 4.203125 -3.03125 C 3.273438 -4.0625 2.5625 -5.28125 2.0625 -6.6875 C 1.570312 -8.09375 1.328125 -9.617188 1.328125 -11.265625 C 1.328125 -12.703125 1.484375 -14.070312 1.796875 -15.375 C 2.117188 -16.675781 2.578125 -17.882812 3.171875 -19 C 3.773438 -20.125 4.492188 -21.132812 5.328125 -22.03125 C 6.160156 -22.9375 7.09375 -23.707031 8.125 -24.34375 C 9.164062 -24.988281 10.289062 -25.484375 11.5 -25.828125 C 12.71875 -26.171875 14 -26.34375 15.34375 -26.34375 C 17 -26.34375 18.488281 -26.046875 19.8125 -25.453125 C 21.132812 -24.867188 22.257812 -24.054688 23.1875 -23.015625 C 24.113281 -21.984375 24.820312 -20.757812 25.3125 -19.34375 C 25.800781 -17.9375 26.046875 -16.410156 26.046875 -14.765625 Z M 21.265625 -14.671875 C 21.265625 -15.847656 21.113281 -16.914062 20.8125 -17.875 C 20.519531 -18.832031 20.09375 -19.648438 19.53125 -20.328125 C 18.976562 -21.015625 18.296875 -21.546875 17.484375 -21.921875 C 16.679688 -22.296875 15.773438 -22.484375 14.765625 -22.484375 C 13.472656 -22.484375 12.296875 -22.21875 11.234375 -21.6875 C 10.171875 -21.15625 9.257812 -20.40625 8.5 -19.4375 C 7.75 -18.46875 7.164062 -17.296875 6.75 -15.921875 C 6.332031 -14.554688 6.125 -13.039062 6.125 -11.375 C 6.125 -10.195312 6.265625 -9.125 6.546875 -8.15625 C 6.835938 -7.195312 7.257812 -6.378906 7.8125 -5.703125 C 8.363281 -5.023438 9.039062 -4.5 9.84375 -4.125 C 10.644531 -3.757812 11.554688 -3.578125 12.578125 -3.578125 C 13.878906 -3.578125 15.066406 -3.84375 16.140625 -4.375 C 17.210938 -4.90625 18.125 -5.648438 18.875 -6.609375 C 19.632812 -7.566406 20.222656 -8.726562 20.640625 -10.09375 C 21.054688 -11.457031 21.265625 -12.984375 21.265625 -14.671875 Z M 21.265625 -14.671875 "/></g></g></g><g fill="#000000" fill-opacity="1"><g transform="translate(305.847821, 358.474427)"><g><path d="M 6.921875 -26.046875 C 7.117188 -26.046875 7.285156 -26.035156 7.421875 -26.015625 C 7.566406 -26.003906 7.691406 -25.96875 7.796875 -25.90625 C 7.910156 -25.851562 8.007812 -25.78125 8.09375 -25.6875 C 8.175781 -25.59375 8.265625 -25.460938 8.359375 -25.296875 L 18.5 -7.515625 C 18.519531 -7.859375 18.546875 -8.195312 18.578125 -8.53125 C 18.609375 -8.863281 18.644531 -9.171875 18.6875 -9.453125 L 20.71875 -26.046875 L 24.84375 -26.046875 L 21.625 0 L 19.21875 0 C 18.863281 0 18.554688 -0.0546875 18.296875 -0.171875 C 18.046875 -0.285156 17.835938 -0.5 17.671875 -0.8125 L 7.578125 -18.59375 C 7.554688 -18.300781 7.53125 -18.019531 7.5 -17.75 C 7.476562 -17.476562 7.457031 -17.222656 7.4375 -16.984375 L 5.390625 0 L 1.265625 0 L 4.46875 -26.046875 Z M 6.921875 -26.046875 "/></g></g></g><g fill="#000000" fill-opacity="1"><g transform="translate(332.478394, 358.474427)"><g><path d="M 16.84375 -21.359375 C 16.675781 -21.117188 16.507812 -20.941406 16.34375 -20.828125 C 16.175781 -20.710938 15.972656 -20.65625 15.734375 -20.65625 C 15.492188 -20.65625 15.242188 -20.75 14.984375 -20.9375 C 14.734375 -21.132812 14.429688 -21.347656 14.078125 -21.578125 C 13.734375 -21.816406 13.320312 -22.03125 12.84375 -22.21875 C 12.375 -22.414062 11.804688 -22.515625 11.140625 -22.515625 C 10.472656 -22.515625 9.882812 -22.414062 9.375 -22.21875 C 8.875 -22.03125 8.453125 -21.769531 8.109375 -21.4375 C 7.773438 -21.101562 7.519531 -20.707031 7.34375 -20.25 C 7.164062 -19.789062 7.078125 -19.296875 7.078125 -18.765625 C 7.078125 -18.210938 7.21875 -17.753906 7.5 -17.390625 C 7.78125 -17.023438 8.148438 -16.703125 8.609375 -16.421875 C 9.066406 -16.148438 9.585938 -15.90625 10.171875 -15.6875 C 10.765625 -15.476562 11.363281 -15.25 11.96875 -15 C 12.570312 -14.757812 13.164062 -14.484375 13.75 -14.171875 C 14.34375 -13.859375 14.867188 -13.472656 15.328125 -13.015625 C 15.785156 -12.566406 16.15625 -12.019531 16.4375 -11.375 C 16.71875 -10.726562 16.859375 -9.953125 16.859375 -9.046875 C 16.859375 -7.773438 16.640625 -6.570312 16.203125 -5.4375 C 15.765625 -4.3125 15.132812 -3.320312 14.3125 -2.46875 C 13.488281 -1.625 12.488281 -0.953125 11.3125 -0.453125 C 10.144531 0.0351562 8.832031 0.28125 7.375 0.28125 C 6.613281 0.28125 5.863281 0.195312 5.125 0.03125 C 4.394531 -0.125 3.707031 -0.347656 3.0625 -0.640625 C 2.414062 -0.941406 1.816406 -1.300781 1.265625 -1.71875 C 0.710938 -2.144531 0.226562 -2.617188 -0.1875 -3.140625 L 1.484375 -5.375 C 1.609375 -5.539062 1.769531 -5.675781 1.96875 -5.78125 C 2.175781 -5.882812 2.382812 -5.9375 2.59375 -5.9375 C 2.78125 -5.9375 2.96875 -5.875 3.15625 -5.75 C 3.34375 -5.632812 3.546875 -5.488281 3.765625 -5.3125 C 3.992188 -5.144531 4.234375 -4.957031 4.484375 -4.75 C 4.742188 -4.539062 5.039062 -4.347656 5.375 -4.171875 C 5.71875 -3.992188 6.097656 -3.84375 6.515625 -3.71875 C 6.941406 -3.601562 7.429688 -3.546875 7.984375 -3.546875 C 9.335938 -3.546875 10.398438 -3.929688 11.171875 -4.703125 C 11.941406 -5.472656 12.328125 -6.535156 12.328125 -7.890625 C 12.328125 -8.492188 12.1875 -8.984375 11.90625 -9.359375 C 11.632812 -9.742188 11.269531 -10.066406 10.8125 -10.328125 C 10.351562 -10.597656 9.832031 -10.832031 9.25 -11.03125 C 8.675781 -11.226562 8.085938 -11.4375 7.484375 -11.65625 C 6.878906 -11.882812 6.285156 -12.144531 5.703125 -12.4375 C 5.128906 -12.726562 4.613281 -13.101562 4.15625 -13.5625 C 3.707031 -14.03125 3.34375 -14.597656 3.0625 -15.265625 C 2.78125 -15.941406 2.640625 -16.773438 2.640625 -17.765625 C 2.640625 -18.878906 2.847656 -19.953125 3.265625 -20.984375 C 3.679688 -22.015625 4.273438 -22.921875 5.046875 -23.703125 C 5.816406 -24.492188 6.75 -25.128906 7.84375 -25.609375 C 8.945312 -26.085938 10.1875 -26.328125 11.5625 -26.328125 C 12.269531 -26.328125 12.953125 -26.253906 13.609375 -26.109375 C 14.265625 -25.960938 14.875 -25.753906 15.4375 -25.484375 C 16 -25.222656 16.515625 -24.910156 16.984375 -24.546875 C 17.460938 -24.179688 17.878906 -23.773438 18.234375 -23.328125 Z M 16.84375 -21.359375 "/></g></g></g><g fill="#000000" fill-opacity="1"><g transform="translate(351.847775, 358.474427)"><g><path d="M 11.4375 -3.75 C 12.28125 -3.75 13.050781 -3.90625 13.75 -4.21875 C 14.457031 -4.539062 15.070312 -4.992188 15.59375 -5.578125 C 16.125 -6.160156 16.5625 -6.859375 16.90625 -7.671875 C 17.25 -8.492188 17.476562 -9.398438 17.59375 -10.390625 L 19.53125 -26.046875 L 24.1875 -26.046875 L 22.28125 -10.390625 C 22.09375 -8.859375 21.6875 -7.4375 21.0625 -6.125 C 20.4375 -4.8125 19.632812 -3.679688 18.65625 -2.734375 C 17.675781 -1.785156 16.535156 -1.046875 15.234375 -0.515625 C 13.929688 0.015625 12.503906 0.28125 10.953125 0.28125 C 9.546875 0.28125 8.296875 0.0625 7.203125 -0.375 C 6.109375 -0.8125 5.1875 -1.425781 4.4375 -2.21875 C 3.6875 -3.007812 3.113281 -3.953125 2.71875 -5.046875 C 2.332031 -6.148438 2.140625 -7.363281 2.140625 -8.6875 C 2.140625 -9.226562 2.175781 -9.796875 2.25 -10.390625 L 4.140625 -26.046875 L 8.828125 -26.046875 L 6.90625 -10.40625 C 6.875 -10.1875 6.851562 -9.96875 6.84375 -9.75 C 6.832031 -9.53125 6.828125 -9.316406 6.828125 -9.109375 C 6.828125 -8.296875 6.925781 -7.554688 7.125 -6.890625 C 7.320312 -6.234375 7.613281 -5.671875 8 -5.203125 C 8.394531 -4.734375 8.878906 -4.375 9.453125 -4.125 C 10.035156 -3.875 10.695312 -3.75 11.4375 -3.75 Z M 11.4375 -3.75 "/></g></g></g><g fill="#000000" fill-opacity="1"><g transform="translate(377.50538, 358.474427)"><g><path d="M 6.390625 -3.875 L 15.875 -3.875 L 15.421875 0 L 1.265625 0 L 4.46875 -26.046875 L 9.140625 -26.046875 Z M 6.390625 -3.875 "/></g></g></g><g fill="#000000" fill-opacity="1"><g transform="translate(396.208105, 358.474427)"><g><path d="M 21.46875 -26.046875 L 20.984375 -22.21875 L 13.859375 -22.21875 L 11.109375 0 L 6.46875 0 L 9.1875 -22.21875 L 2.03125 -22.21875 L 2.5 -26.046875 Z M 21.46875 -26.046875 "/></g></g></g><g fill="#000000" fill-opacity="1"><g transform="translate(417.505404, 358.474427)"><g><path d="M 22.28125 0 L 18.671875 0 C 18.253906 0 17.925781 -0.09375 17.6875 -0.28125 C 17.445312 -0.476562 17.296875 -0.738281 17.234375 -1.0625 L 16.15625 -6.5 L 6.453125 -6.5 L 4.03125 -1.0625 C 3.90625 -0.789062 3.691406 -0.546875 3.390625 -0.328125 C 3.085938 -0.109375 2.75 0 2.375 0 L -1.296875 0 L 11.296875 -26.046875 L 16.0625 -26.046875 Z M 7.90625 -9.796875 L 15.5 -9.796875 L 13.734375 -18.71875 C 13.628906 -19.144531 13.53125 -19.597656 13.4375 -20.078125 C 13.34375 -20.566406 13.253906 -21.109375 13.171875 -21.703125 C 12.941406 -21.109375 12.710938 -20.554688 12.484375 -20.046875 C 12.265625 -19.535156 12.0625 -19.085938 11.875 -18.703125 Z M 7.90625 -9.796875 "/></g></g></g><g fill="#000000" fill-opacity="1"><g transform="translate(442.172022, 358.474427)"><g><path d="M 6.921875 -26.046875 C 7.117188 -26.046875 7.285156 -26.035156 7.421875 -26.015625 C 7.566406 -26.003906 7.691406 -25.96875 7.796875 -25.90625 C 7.910156 -25.851562 8.007812 -25.78125 8.09375 -25.6875 C 8.175781 -25.59375 8.265625 -25.460938 8.359375 -25.296875 L 18.5 -7.515625 C 18.519531 -7.859375 18.546875 -8.195312 18.578125 -8.53125 C 18.609375 -8.863281 18.644531 -9.171875 18.6875 -9.453125 L 20.71875 -26.046875 L 24.84375 -26.046875 L 21.625 0 L 19.21875 0 C 18.863281 0 18.554688 -0.0546875 18.296875 -0.171875 C 18.046875 -0.285156 17.835938 -0.5 17.671875 -0.8125 L 7.578125 -18.59375 C 7.554688 -18.300781 7.53125 -18.019531 7.5 -17.75 C 7.476562 -17.476562 7.457031 -17.222656 7.4375 -16.984375 L 5.390625 0 L 1.265625 0 L 4.46875 -26.046875 Z M 6.921875 -26.046875 "/></g></g></g><g fill="#000000" fill-opacity="1"><g transform="translate(468.802574, 358.474427)"><g><path d="M 12.21875 -3.671875 C 12.945312 -3.671875 13.582031 -3.726562 14.125 -3.84375 C 14.675781 -3.957031 15.148438 -4.101562 15.546875 -4.28125 C 15.953125 -4.46875 16.300781 -4.660156 16.59375 -4.859375 C 16.882812 -5.054688 17.132812 -5.242188 17.34375 -5.421875 C 17.5625 -5.597656 17.753906 -5.742188 17.921875 -5.859375 C 18.085938 -5.972656 18.257812 -6.03125 18.4375 -6.03125 C 18.570312 -6.03125 18.6875 -6 18.78125 -5.9375 C 18.882812 -5.882812 18.96875 -5.828125 19.03125 -5.765625 L 20.65625 -3.734375 C 19.53125 -2.429688 18.203125 -1.4375 16.671875 -0.75 C 15.148438 -0.0625 13.398438 0.28125 11.421875 0.28125 C 9.828125 0.28125 8.40625 0 7.15625 -0.5625 C 5.90625 -1.132812 4.847656 -1.925781 3.984375 -2.9375 C 3.117188 -3.945312 2.457031 -5.140625 2 -6.515625 C 1.550781 -7.898438 1.328125 -9.410156 1.328125 -11.046875 C 1.328125 -12.546875 1.488281 -13.960938 1.8125 -15.296875 C 2.144531 -16.640625 2.609375 -17.878906 3.203125 -19.015625 C 3.804688 -20.148438 4.523438 -21.164062 5.359375 -22.0625 C 6.203125 -22.96875 7.132812 -23.738281 8.15625 -24.375 C 9.175781 -25.007812 10.273438 -25.492188 11.453125 -25.828125 C 12.640625 -26.171875 13.878906 -26.34375 15.171875 -26.34375 C 16.117188 -26.34375 16.984375 -26.253906 17.765625 -26.078125 C 18.546875 -25.898438 19.253906 -25.65625 19.890625 -25.34375 C 20.523438 -25.03125 21.09375 -24.65625 21.59375 -24.21875 C 22.101562 -23.78125 22.5625 -23.289062 22.96875 -22.75 L 21.34375 -20.8125 C 21.226562 -20.664062 21.085938 -20.535156 20.921875 -20.421875 C 20.765625 -20.316406 20.566406 -20.265625 20.328125 -20.265625 C 20.054688 -20.265625 19.800781 -20.375 19.5625 -20.59375 C 19.320312 -20.8125 19.019531 -21.046875 18.65625 -21.296875 C 18.289062 -21.554688 17.816406 -21.796875 17.234375 -22.015625 C 16.648438 -22.234375 15.882812 -22.34375 14.9375 -22.34375 C 13.6875 -22.34375 12.523438 -22.085938 11.453125 -21.578125 C 10.390625 -21.066406 9.457031 -20.335938 8.65625 -19.390625 C 7.863281 -18.441406 7.242188 -17.296875 6.796875 -15.953125 C 6.347656 -14.609375 6.125 -13.101562 6.125 -11.4375 C 6.125 -10.226562 6.273438 -9.140625 6.578125 -8.171875 C 6.890625 -7.210938 7.316406 -6.398438 7.859375 -5.734375 C 8.398438 -5.066406 9.039062 -4.554688 9.78125 -4.203125 C 10.53125 -3.847656 11.34375 -3.671875 12.21875 -3.671875 Z M 12.21875 -3.671875 "/></g></g></g><g fill="#000000" fill-opacity="1"><g transform="translate(492.099821, 358.474427)"><g><path d="M 13.421875 -10.140625 L 12.15625 0 L 7.46875 0 L 8.734375 -10.15625 L 1.96875 -26.046875 L 6.125 -26.046875 C 6.53125 -26.046875 6.84375 -25.945312 7.0625 -25.75 C 7.28125 -25.550781 7.445312 -25.296875 7.5625 -24.984375 L 10.9375 -15.984375 C 11.101562 -15.546875 11.238281 -15.117188 11.34375 -14.703125 C 11.445312 -14.296875 11.535156 -13.894531 11.609375 -13.5 C 11.796875 -13.894531 12 -14.296875 12.21875 -14.703125 C 12.445312 -15.109375 12.695312 -15.535156 12.96875 -15.984375 L 18.578125 -24.984375 C 18.742188 -25.265625 18.960938 -25.507812 19.234375 -25.71875 C 19.503906 -25.9375 19.835938 -26.046875 20.234375 -26.046875 L 24.109375 -26.046875 Z M 13.421875 -10.140625 "/></g></g></g><g fill="#000000" fill-opacity="1"><g transform="translate(299.993244, 422.067102)"><g/></g></g></svg>