<svg xmlns="http://www.w3.org/2000/svg" viewBox="0 0 500 500"><g id="freepik--background-complete--inject-4"><rect x="24.18" y="254.26" width="24.58" height="24.58" style="fill:#f5f5f5"></rect><rect x="53.03" y="254.26" width="24.58" height="24.58" style="fill:#f5f5f5"></rect><rect x="82.62" y="254.26" width="24.58" height="24.58" style="fill:#f5f5f5"></rect><rect x="112.21" y="254.26" width="24.58" height="24.58" style="fill:#f5f5f5"></rect><rect x="141.8" y="254.26" width="24.58" height="24.58" style="fill:#f5f5f5"></rect><rect x="171.39" y="254.26" width="24.58" height="24.58" style="fill:#f5f5f5"></rect><rect x="200.99" y="254.26" width="24.58" height="24.58" style="fill:#f5f5f5"></rect><rect x="230.58" y="254.26" width="24.58" height="24.58" style="fill:#f5f5f5"></rect><rect x="260.17" y="254.26" width="24.58" height="24.58" style="fill:#f5f5f5"></rect><rect x="289.76" y="254.26" width="24.58" height="24.58" style="fill:#f5f5f5"></rect><rect x="319.35" y="254.26" width="24.58" height="24.58" style="fill:#f5f5f5"></rect><rect x="350.21" y="254.26" width="24.58" height="24.58" style="fill:#f5f5f5"></rect><rect x="379.06" y="254.26" width="24.58" height="24.58" style="fill:#f5f5f5"></rect><rect x="408.65" y="254.26" width="24.58" height="24.58" style="fill:#f5f5f5"></rect><rect x="438.24" y="254.26" width="24.58" height="24.58" style="fill:#f5f5f5"></rect><rect x="24.18" y="224.51" width="24.58" height="24.58" style="fill:#f5f5f5"></rect><rect x="53.03" y="224.51" width="24.58" height="24.58" style="fill:#f5f5f5"></rect><rect x="82.62" y="224.51" width="24.58" height="24.58" style="fill:#f5f5f5"></rect><rect x="112.21" y="224.51" width="24.58" height="24.58" style="fill:#f5f5f5"></rect><rect x="141.8" y="224.51" width="24.58" height="24.58" style="fill:#f5f5f5"></rect><rect x="171.39" y="224.51" width="24.58" height="24.58" style="fill:#f5f5f5"></rect><rect x="200.99" y="224.51" width="24.58" height="24.58" style="fill:#f5f5f5"></rect><rect x="230.58" y="224.51" width="24.58" height="24.58" style="fill:#f5f5f5"></rect><rect x="260.17" y="224.51" width="24.58" height="24.58" style="fill:#f5f5f5"></rect><rect x="289.76" y="224.51" width="24.58" height="24.58" style="fill:#f5f5f5"></rect><rect x="319.35" y="224.51" width="24.58" height="24.58" style="fill:#f5f5f5"></rect><rect x="350.21" y="224.51" width="24.58" height="24.58" style="fill:#f5f5f5"></rect><rect x="379.06" y="224.51" width="24.58" height="24.58" style="fill:#f5f5f5"></rect><rect x="408.65" y="224.51" width="24.58" height="24.58" style="fill:#f5f5f5"></rect><rect x="438.24" y="224.51" width="24.58" height="24.58" style="fill:#f5f5f5"></rect><rect x="24.18" y="313.82" width="24.58" height="24.58" style="fill:#f5f5f5"></rect><rect x="53.03" y="313.82" width="24.58" height="24.58" style="fill:#f5f5f5"></rect><rect x="82.62" y="313.82" width="24.58" height="24.58" style="fill:#f5f5f5"></rect><rect x="112.21" y="313.82" width="24.58" height="24.58" style="fill:#f5f5f5"></rect><rect x="141.8" y="313.82" width="24.58" height="24.58" style="fill:#f5f5f5"></rect><rect x="171.39" y="313.82" width="24.58" height="24.58" style="fill:#f5f5f5"></rect><rect x="200.99" y="313.82" width="24.58" height="24.58" style="fill:#f5f5f5"></rect><rect x="230.58" y="313.82" width="24.58" height="24.58" style="fill:#f5f5f5"></rect><rect x="260.17" y="313.82" width="24.58" height="24.58" style="fill:#f5f5f5"></rect><rect x="289.76" y="313.82" width="24.58" height="24.58" style="fill:#f5f5f5"></rect><rect x="319.35" y="313.82" width="24.58" height="24.58" style="fill:#f5f5f5"></rect><rect x="350.21" y="313.82" width="24.58" height="24.58" style="fill:#f5f5f5"></rect><rect x="379.06" y="313.82" width="24.58" height="24.58" style="fill:#f5f5f5"></rect><rect x="408.65" y="313.82" width="24.58" height="24.58" style="fill:#f5f5f5"></rect><rect x="438.24" y="313.82" width="24.58" height="24.58" style="fill:#f5f5f5"></rect><rect x="24.18" y="284.06" width="24.58" height="24.58" style="fill:#f5f5f5"></rect><rect x="53.03" y="284.06" width="24.58" height="24.58" style="fill:#f5f5f5"></rect><rect x="82.62" y="284.06" width="24.58" height="24.58" style="fill:#f5f5f5"></rect><rect x="112.21" y="284.06" width="24.58" height="24.58" style="fill:#f5f5f5"></rect><rect x="141.8" y="284.06" width="24.58" height="24.58" style="fill:#f5f5f5"></rect><rect x="171.39" y="284.06" width="24.58" height="24.58" style="fill:#f5f5f5"></rect><rect x="200.99" y="284.06" width="24.58" height="24.58" style="fill:#f5f5f5"></rect><rect x="230.58" y="284.06" width="24.58" height="24.58" style="fill:#f5f5f5"></rect><rect x="260.17" y="284.06" width="24.58" height="24.58" style="fill:#f5f5f5"></rect><rect x="289.76" y="284.06" width="24.58" height="24.58" style="fill:#f5f5f5"></rect><rect x="319.35" y="284.06" width="24.58" height="24.58" style="fill:#f5f5f5"></rect><rect x="350.21" y="284.06" width="24.58" height="24.58" style="fill:#f5f5f5"></rect><rect x="379.06" y="284.06" width="24.58" height="24.58" style="fill:#f5f5f5"></rect><rect x="408.65" y="284.06" width="24.58" height="24.58" style="fill:#f5f5f5"></rect><rect x="438.24" y="284.06" width="24.58" height="24.58" style="fill:#f5f5f5"></rect><path d="M118.66,65.49h-1.82V62a1.94,1.94,0,0,0-1.79-2.06H101.24A1.94,1.94,0,0,0,99.44,62v3.5H97.63V62a3.77,3.77,0,0,1,3.61-3.91h13.81A3.77,3.77,0,0,1,118.66,62Z" style="fill:#ebebeb"></path><rect x="72.26" y="65.49" width="71.49" height="48.7" rx="9.13" style="fill:#ebebeb"></rect><rect x="106" y="80" width="4.29" height="19.58" style="fill:#f5f5f5"></rect><rect x="105.96" y="80.18" width="4.37" height="19.21" transform="translate(18.35 197.93) rotate(-90)" style="fill:#f5f5f5"></rect><path d="M124.1,89.84a.94.94,0,0,1,0-.27l0-.77c0-.17,0-.36,0-.57s-.07-.43-.11-.68a11.75,11.75,0,0,0-.33-1.68,16.09,16.09,0,0,0-1.78-4.32A16.31,16.31,0,0,0,117.7,77a15.61,15.61,0,0,0-15-2.3,15.14,15.14,0,0,0-2.06.93,16.27,16.27,0,0,0-2,1.27,14.63,14.63,0,0,0-3.35,3.43,15.69,15.69,0,0,0-2.26,4.45,16.24,16.24,0,0,0,0,10.19,15.56,15.56,0,0,0,2.26,4.45,18.76,18.76,0,0,0,1.55,1.87,17.48,17.48,0,0,0,1.8,1.56,15.84,15.84,0,0,0,1.94,1.28,17.21,17.21,0,0,0,2.07.92,15.54,15.54,0,0,0,15-2.3,16.3,16.3,0,0,0,5.84-8.9,11.75,11.75,0,0,0,.33-1.68c0-.25.09-.48.11-.68s0-.4,0-.57l0-.78a.9.9,0,0,1,0-.26.86.86,0,0,1,0,.26c0,.19,0,.45,0,.78l0,.57a6.56,6.56,0,0,1-.09.69,10.48,10.48,0,0,1-.31,1.7,15.33,15.33,0,0,1-1.74,4.38,16.32,16.32,0,0,1-4.07,4.68,15.77,15.77,0,0,1-15.27,2.41,16.52,16.52,0,0,1-2.12-.94,16.35,16.35,0,0,1-2-1.29,15,15,0,0,1-3.43-3.5A16.07,16.07,0,0,1,92.74,95a16.55,16.55,0,0,1,0-10.41,16.2,16.2,0,0,1,2.31-4.54,20.9,20.9,0,0,1,1.59-1.91,19.46,19.46,0,0,1,1.84-1.58,17,17,0,0,1,2-1.3,17.19,17.19,0,0,1,2.11-.94,15.84,15.84,0,0,1,15.27,2.41,16.22,16.22,0,0,1,4.07,4.69,15.22,15.22,0,0,1,1.74,4.38,10.29,10.29,0,0,1,.31,1.7,6.07,6.07,0,0,1,.09.68l0,.58c0,.32,0,.58,0,.77A.92.92,0,0,1,124.1,89.84Z" style="fill:#f5f5f5"></path><path d="M165.15,69.07V61.71h-5.09v7.36h-5.12v42.12h15V69.07Z" style="fill:#ebebeb"></path><rect x="64.02" y="111.19" width="123.33" height="6.41" style="fill:#e0e0e0"></rect><rect x="88.13" y="117.6" width="3.59" height="15.16" style="fill:#e0e0e0"></rect><rect x="159.94" y="117.6" width="3.59" height="15.16" style="fill:#e0e0e0"></rect><path d="M137.33,80.4V75h-3.72V80.4h-3.74v30.79H140.8V80.4Z" style="fill:#fafafa"></path><path d="M149.74,80.4V75H146V80.4h-3.74v30.79h10.93V80.4Z" style="fill:#f5f5f5"></path><rect x="68.49" y="91.19" width="19.63" height="20" style="fill:#e0e0e0"></rect><path d="M88,96.33c0,.13-4.33.23-9.68.23s-9.68-.1-9.68-.23,4.33-.23,9.68-.23S88,96.2,88,96.33Z" style="fill:#ebebeb"></path><path d="M79.06,99s.07,0,.2,0a1.69,1.69,0,0,1,.52.25,2.84,2.84,0,0,1,1.07,1.84,4.19,4.19,0,0,1-.5,3.14,2.86,2.86,0,0,1-1.53,1.18,3.54,3.54,0,0,1-2,0,3.64,3.64,0,0,1-2.73-2.67,3.25,3.25,0,0,1,.93-3,3.06,3.06,0,0,1,2-.8,1.31,1.31,0,0,1,.76.13s-.27,0-.74,0a3.12,3.12,0,0,0-1.75.86,2.93,2.93,0,0,0-.73,2.7A3.57,3.57,0,0,0,78.69,105,2.44,2.44,0,0,0,80,104a4,4,0,0,0,.54-2.84,2.91,2.91,0,0,0-.87-1.76C79.31,99.09,79,99,79.06,99Z" style="fill:#ebebeb"></path><rect x="368.82" y="86.84" width="75.05" height="78.24" style="fill:#e0e0e0"></rect><rect x="363.74" y="86.84" width="75.05" height="78.24" style="fill:#ebebeb"></rect><rect x="373.83" y="97.36" width="54.88" height="57.2" style="fill:#fafafa"></rect><path d="M373.83,154.94a10.44,10.44,0,0,1-1.37,1.56c-.88.92-2.12,2.17-3.5,3.53s-2.65,2.57-3.58,3.44a10.54,10.54,0,0,1-1.57,1.34,10.59,10.59,0,0,1,1.37-1.55c.88-.92,2.12-2.17,3.5-3.54s2.65-2.58,3.59-3.44A10.07,10.07,0,0,1,373.83,154.94Z" style="fill:#e0e0e0"></path><path d="M428.7,154.8a10.44,10.44,0,0,1,1.56,1.37c.92.88,2.17,2.12,3.53,3.5s2.57,2.65,3.44,3.58a10.54,10.54,0,0,1,1.34,1.57,10.59,10.59,0,0,1-1.55-1.37c-.92-.88-2.17-2.12-3.54-3.5s-2.58-2.65-3.44-3.59A10.07,10.07,0,0,1,428.7,154.8Z" style="fill:#e0e0e0"></path><path d="M428.55,97.51A11.42,11.42,0,0,1,429.92,96c.88-.92,2.12-2.17,3.5-3.53S436.07,89.85,437,89a9.81,9.81,0,0,1,1.57-1.34,10.59,10.59,0,0,1-1.37,1.55c-.88.92-2.12,2.17-3.5,3.53s-2.65,2.58-3.59,3.45A9.59,9.59,0,0,1,428.55,97.51Z" style="fill:#e0e0e0"></path><path d="M373.68,97.65a9.75,9.75,0,0,1-1.56-1.37c-.92-.88-2.17-2.11-3.53-3.49s-2.57-2.65-3.44-3.58a10.54,10.54,0,0,1-1.34-1.57A10.07,10.07,0,0,1,365.36,89c.92.89,2.17,2.12,3.54,3.51s2.58,2.65,3.44,3.58A10.67,10.67,0,0,1,373.68,97.65Z" style="fill:#e0e0e0"></path><path d="M428.55,154.56s0-.09,0-.27,0-.46,0-.8c0-.71,0-1.74,0-3.08,0-2.71,0-6.65-.05-11.66,0-10,0-24.29-.09-41.39l.18.18-54.72,0h0l.2-.21c0,21,0,40.64,0,57.2l-.17-.17,39.63.09,11.13,0,2.94,0h0l-2.91,0-11.09.05-39.74.09h-.18v-.18c0-16.56,0-36.2,0-57.2v-.21h.21l54.72,0h.18v.18c0,17.14-.07,31.46-.09,41.51,0,5,0,8.91-.05,11.61,0,1.33,0,2.35,0,3.05,0,.33,0,.59,0,.78A2.28,2.28,0,0,1,428.55,154.56Z" style="fill:#e0e0e0"></path><path d="M389.39,120.43h2.95s2.19-7.58,7.92-6.32,6.32,6.32,5.9,8.85a.88.88,0,0,0,.84,1.18c1.18.17,10,0,10,0s2.53,15-13.82,13.74-10.62-12.14-9.86-13.23S389.39,120.43,389.39,120.43Z" style="fill:#ebebeb"></path><path d="M408.94,128.6a8.33,8.33,0,0,1-5.93.85,6.82,6.82,0,0,0-3.23-.15,2.86,2.86,0,0,0-1.91,2.95l.18.43a5.88,5.88,0,0,0,10.89-4.08Z" style="fill:#e0e0e0"></path><path d="M396.23,120.2a.48.48,0,0,1-.48.48.49.49,0,0,1-.48-.48.48.48,0,0,1,.48-.48A.47.47,0,0,1,396.23,120.2Z" style="fill:#e0e0e0"></path></g><g id="freepik--Mirror--inject-4"><rect x="232.14" y="48.81" width="105.54" height="152.97" style="fill:#263238"></rect><rect x="226.85" y="48.81" width="105.54" height="152.97" style="fill:#455a64"></rect><rect x="239.96" y="65.38" width="79.31" height="119.84" style="fill:#fff"></rect><path d="M319.28,185.21s0-.2,0-.58,0-1,0-1.7c0-1.51,0-3.71,0-6.57,0-5.75,0-14.12-.07-24.69,0-21.13-.07-51-.13-86.29l.27.26-79.31,0h0l.29-.28c0,45.2,0,86.89-.06,119.83L240,185l57.73.12,15.95,0,4.19,0,1.45,0-1.4,0-4.15,0-15.89.06-57.88.12h-.22v-.23c0-32.94,0-74.63-.06-119.83v-.29H240l79.31,0h.26v.27c-.05,35.31-.1,65.29-.13,86.46,0,10.55-.05,18.9-.07,24.63,0,2.84,0,5,0,6.52,0,.73,0,1.28,0,1.67S319.28,185.21,319.28,185.21Z" style="fill:#e0e0e0"></path><path d="M332.69,48.81a18.64,18.64,0,0,1-1.89,2.73c-1.22,1.64-3,3.87-4.95,6.28s-3.84,4.55-5.21,6.07a18.23,18.23,0,0,1-2.33,2.37,19.34,19.34,0,0,1,2-2.64c1.41-1.71,3.15-3.83,5.08-6.16l5.08-6.17A18.71,18.71,0,0,1,332.69,48.81Z" style="fill:#263238"></path><path d="M319.68,184.83a98.53,98.53,0,0,0,13.83,17.3" style="fill:#fff"></path><path d="M333.51,202.13a16.53,16.53,0,0,1-2.41-2.2,75.8,75.8,0,0,1-5.22-5.88,76.92,76.92,0,0,1-4.59-6.39,16,16,0,0,1-1.61-2.83,21.37,21.37,0,0,1,1.95,2.61c1.16,1.63,2.8,3.86,4.7,6.25s3.73,4.47,5.07,6A20.46,20.46,0,0,1,333.51,202.13Z" style="fill:#263238"></path><path d="M226.84,201.66l13.82-17" style="fill:#fff"></path><path d="M240.66,184.6a105.38,105.38,0,0,1-6.69,8.71,107.61,107.61,0,0,1-7.13,8.35,102.76,102.76,0,0,1,6.69-8.71A107.33,107.33,0,0,1,240.66,184.6Z" style="fill:#e0e0e0"></path><path d="M226.85,48.81a93.07,93.07,0,0,1,6.71,8,94.25,94.25,0,0,1,6.26,8.38,95.27,95.27,0,0,1-6.71-8A96.7,96.7,0,0,1,226.85,48.81Z" style="fill:#263238"></path><path d="M275.65,97.29c7.56,1.25,13.38,8.06,15.13,15.51s.05,15.35-2.95,22.4c-1.23,2.87-2.68,5.69-3.25,8.76s-.12,6.53,2,8.78c2.58,2.68,6.7,2.94,10.15,4.34,5,2.06,8.64,6.73,10.65,11.79s2.61,10.55,3.2,16h-70l-.7-70.68S247.13,91.5,275.65,97.29Z" style="fill:#ebebeb"></path><path d="M244.27,169.85c-.07-.06,15.3-17.28,34.34-38.44s34.54-38.27,34.62-38.21-15.3,17.28-34.35,38.45S244.35,169.92,244.27,169.85Z" style="fill:#263238"></path><path d="M305.9,89.11c.07.07-9.61,10.86-21.63,24.09s-21.83,23.92-21.9,23.85S272,126.2,284,113,305.83,89,305.9,89.11Z" style="fill:#263238"></path><path d="M301.47,121.7a4.33,4.33,0,0,1-.37.41L300,123.23l-4.07,4.1c-3.44,3.46-8.14,8.3-13.21,13.76s-9.53,10.51-12.72,14.2l-3.78,4.37c-.43.5-.78.89-1,1.19a3,3,0,0,1-.38.4,3.07,3.07,0,0,1,.32-.45l1-1.23c.86-1.06,2.12-2.58,3.69-4.45,3.15-3.73,7.59-8.81,12.66-14.28s9.8-10.27,13.28-13.7c1.75-1.71,3.17-3.08,4.17-4l1.15-1.07A2.91,2.91,0,0,1,301.47,121.7Z" style="fill:#263238"></path></g><g id="freepik--speech-bubble--inject-4"><circle cx="127.44" cy="151.55" r="26.08" style="fill:#fafafa"></circle><path d="M155,170.39s-.29.05-.75.24a3.38,3.38,0,0,0-1.57,1.35,3.16,3.16,0,0,0-.49,1.34,2.87,2.87,0,0,0,.29,1.6,3.11,3.11,0,0,0,5.83-.35,2.91,2.91,0,0,0,.1-1.62,3.19,3.19,0,0,0-.65-1.27,3.44,3.44,0,0,0-1.72-1.16c-.48-.13-.77-.11-.77-.14s.07,0,.21,0h.25l.34.06a3.49,3.49,0,0,1,1.83,1.14,3.35,3.35,0,0,1,.7,1.34,3,3,0,0,1-.08,1.73,3.53,3.53,0,0,1-1.09,1.59,3.28,3.28,0,0,1-1.9.79,3.38,3.38,0,0,1-2-.56,3.64,3.64,0,0,1-1.27-1.44,3.1,3.1,0,0,1-.28-1.72,3.5,3.5,0,0,1,2.23-2.76c.12,0,.23-.07.32-.1l.25,0Z" style="fill:#263238"></path><path d="M163.23,178.6s-.18,0-.47.16a2.22,2.22,0,0,0-1,.85,1.84,1.84,0,0,0-.11,1.82,1.92,1.92,0,0,0,3.59-.22,1.82,1.82,0,0,0-.33-1.79,2.16,2.16,0,0,0-1.06-.73c-.3-.08-.48-.08-.48-.1a1,1,0,0,1,.5,0,2.17,2.17,0,0,1,1.18.71,2.27,2.27,0,0,1,.45.86,2,2,0,0,1,0,1.12,2.27,2.27,0,0,1-1.93,1.52,2.24,2.24,0,0,1-2.09-1.29,1.94,1.94,0,0,1-.17-1.1,2.07,2.07,0,0,1,.35-.9,2.1,2.1,0,0,1,1.08-.85A1,1,0,0,1,163.23,178.6Z" style="fill:#263238"></path><path d="M153.61,153.58s0-.14,0-.42,0-.7,0-1.25c0-.27,0-.58,0-.92s-.05-.7-.08-1.1-.07-.83-.1-1.29a4.49,4.49,0,0,0-.1-.71l-.13-.74a25,25,0,0,0-2.35-7.17,26,26,0,0,0-6-7.91l-1.06-.92c-.38-.29-.78-.56-1.17-.85l-.59-.43a5,5,0,0,0-.62-.4l-1.3-.76-.66-.38-.7-.32-1.43-.65c-.48-.2-1-.35-1.5-.53l-.76-.26-.39-.13-.4-.09a24.41,24.41,0,0,0-3.26-.64c-.56-.06-1.12-.16-1.69-.19l-1.73,0c-.29,0-.58,0-.87,0l-.88.06c-.59,0-1.18.08-1.77.15a26.41,26.41,0,0,0-3.55.75l-.89.25-.44.12-.44.17-1.74.68c-.57.26-1.13.56-1.7.84-.28.15-.57.28-.84.45l-.81.51a31,31,0,0,0-3.15,2.28l-1.43,1.35-.36.34c-.12.12-.22.25-.33.38l-.66.75-.66.75-.59.81-.59.82-.3.42-.26.43-1,1.77c-.29.62-.57,1.24-.86,1.87a25.89,25.89,0,0,0-1.28,16.42c.18.66.37,1.32.55,2s.5,1.27.74,1.9l.19.47.23.46.45.9.46.9.54.84.53.85.27.42.3.39,1.21,1.56a29.72,29.72,0,0,0,2.76,2.74l.72.63c.24.21.51.38.76.57.52.37,1,.75,1.55,1.09l1.62.95.4.23.42.2.84.38a26.81,26.81,0,0,0,3.39,1.29c.57.16,1.15.28,1.73.42l.85.2c.29.06.58.08.87.12l1.71.23c.57,0,1.14,0,1.71.06a24.39,24.39,0,0,0,3.32-.12l.4,0,.4-.07.8-.14c.53-.1,1.05-.16,1.56-.29l1.51-.42.74-.21.72-.27,1.4-.54a5.79,5.79,0,0,0,.67-.31l.66-.33c.43-.22.86-.42,1.28-.65l1.19-.75a26.19,26.19,0,0,0,7.2-6.88c.21-.3.43-.59.63-.88l.53-.91.51-.87c.08-.14.17-.28.24-.43s.13-.29.2-.43c.26-.58.52-1.12.76-1.65s.38-1.06.56-1.55l.24-.71a4.54,4.54,0,0,0,.21-.69c.1-.44.2-.86.3-1.25s.18-.75.24-1.08l.13-.91c.07-.54.13-1,.17-1.24s.07-.42.07-.42,0,.15-.05.43-.08.7-.14,1.24c0,.27-.08.57-.12.91s-.15.69-.23,1.08-.19.82-.29,1.27a6.45,6.45,0,0,1-.2.68l-.24.72c-.18.49-.33,1-.55,1.56l-.76,1.66-.19.44-.25.43-.5.87c-.18.3-.35.61-.53.92s-.42.58-.63.89a26.29,26.29,0,0,1-7.22,6.94l-1.19.76c-.42.23-.86.44-1.29.66l-.66.34a5.24,5.24,0,0,1-.68.31l-1.41.55c-.24.09-.47.19-.72.27l-.74.21-1.52.43c-.51.13-1.05.2-1.58.3l-.8.14-.4.07-.41,0a24.77,24.77,0,0,1-3.35.13c-.57,0-1.14,0-1.71-.06l-1.73-.23c-.29,0-.59-.06-.88-.12l-.86-.2c-.58-.14-1.17-.26-1.74-.42a26.48,26.48,0,0,1-3.43-1.3l-.84-.38-.43-.2-.4-.23-1.63-1c-.54-.35-1-.74-1.56-1.11-.26-.19-.54-.36-.78-.57l-.72-.64a29,29,0,0,1-2.79-2.76l-1.22-1.57-.31-.4-.27-.42-.53-.85-.55-.86-.46-.9-.46-.91-.23-.46-.19-.47-.75-1.93c-.18-.66-.37-1.33-.56-2a28.3,28.3,0,0,1-.71-8.39,27.81,27.81,0,0,1,2-8.17c.29-.63.58-1.26.86-1.89l1-1.78c.09-.15.17-.3.26-.44l.3-.42.59-.83.6-.82.67-.76.66-.76c.11-.12.22-.25.34-.37l.36-.34,1.45-1.37a29,29,0,0,1,3.18-2.29l.81-.52c.28-.17.57-.3.86-.45.57-.28,1.13-.59,1.71-.85l1.76-.68.43-.17.45-.13.9-.25a30.4,30.4,0,0,1,3.58-.75c.6-.07,1.2-.09,1.79-.14l.88-.07c.3,0,.59,0,.88,0l1.75,0c.57,0,1.14.14,1.7.21a24.87,24.87,0,0,1,3.29.65l.4.09.39.13.77.26c.5.19,1,.34,1.51.54l1.43.66.7.32.67.39,1.31.76a5.11,5.11,0,0,1,.62.41l.6.43c.39.29.79.56,1.17.86l1.06.93a26.19,26.19,0,0,1,6,8,24.64,24.64,0,0,1,2.32,7.21c0,.26.09.51.13.75a4.45,4.45,0,0,1,.09.71q0,.69.09,1.29c0,.4.06.77.07,1.11s0,.65,0,.92c0,.55,0,1-.05,1.25S153.61,153.58,153.61,153.58Z" style="fill:#263238"></path><path d="M120.47,146.55h3.73a3.16,3.16,0,0,1,3.25-3.18,3,3,0,0,1,2.92,1.92,3.33,3.33,0,0,1-.26,3c-.64,1-2,2-4.54,1.55v8.41h3.69v-4.93a7.19,7.19,0,0,0,5.17-7c0-5.46-4.89-6.72-7-6.72C125.85,139.59,120.4,140,120.47,146.55Z" style="fill:#FF725E"></path><rect x="125.56" y="160" width="3.74" height="3.49" style="fill:#FF725E"></rect></g><g id="freepik--Box--inject-4"><rect x="335.64" y="352.64" width="9.11" height="16.45" style="fill:#FF725E"></rect><g style="opacity:0.30000000000000004"><rect x="335.64" y="352.64" width="9.11" height="16.45"></rect></g><rect x="282.25" y="352.64" width="53.39" height="16.45" style="fill:#fff"></rect><rect x="297.1" y="352.64" width="38.58" height="16.45" style="fill:#FF725E"></rect><path d="M305.69,359.55c0,.63-.46,1-1.21,1h-.64v.82h-.53v-2.84h1.17C305.23,358.54,305.69,358.92,305.69,359.55Zm-.53,0c0-.35-.24-.56-.7-.56h-.62v1.13h.62C304.92,360.12,305.16,359.91,305.16,359.55Z" style="fill:#fff"></path><path d="M308.07,361.38l-.58-.83h-.75v.82h-.53v-2.84h1.17c.75,0,1.21.38,1.21,1a.92.92,0,0,1-.6.9l.65.93Zm-.71-2.39h-.62v1.13h.62c.46,0,.7-.21.7-.57S307.82,359,307.36,359Z" style="fill:#fff"></path><path d="M311.31,360.94v.44h-2.13v-2.84h2.07V359h-1.54v.73h1.37v.44h-1.37v.78Z" style="fill:#fff"></path><path d="M313.82,359.93h.5v1.13a1.79,1.79,0,0,1-1.11.37,1.47,1.47,0,1,1,1.15-2.46l-.33.32a1.08,1.08,0,0,0-.79-.32,1,1,0,1,0,0,2,1.18,1.18,0,0,0,.58-.14Z" style="fill:#fff"></path><path d="M317.54,358.54v2.84h-.44l-1.57-1.92v1.92H315v-2.84h.43l1.57,1.93v-1.93Z" style="fill:#fff"></path><path d="M320.14,360.73h-1.42l-.28.65h-.55l1.28-2.84h.52l1.28,2.84h-.55Zm-.18-.42-.53-1.24-.53,1.24Z" style="fill:#fff"></path><path d="M323.86,358.54v2.84h-.44l-1.56-1.92v1.92h-.53v-2.84h.44l1.56,1.93v-1.93Z" style="fill:#fff"></path><path d="M324.41,360a1.54,1.54,0,0,1,2.65-1l-.34.32A1,1,0,0,0,326,359a1,1,0,1,0,0,2,1,1,0,0,0,.76-.33l.34.32a1.54,1.54,0,0,1-2.65-1Z" style="fill:#fff"></path><path d="M328.75,360.38v1h-.53v-1l-1.12-1.85h.57l.83,1.39.84-1.39h.52Z" style="fill:#fff"></path><path d="M312.5,363.24h-1V363h2.3v.26h-1v2.58h-.3Z" style="fill:#fff"></path><path d="M316.28,365.56v.26h-2V363h2v.26h-1.65v1H316v.26h-1.47v1.05Z" style="fill:#fff"></path><path d="M316.71,365.48l.12-.23a1.45,1.45,0,0,0,.94.34c.53,0,.76-.22.76-.5,0-.78-1.75-.3-1.75-1.35,0-.42.33-.78,1.05-.78a1.59,1.59,0,0,1,.88.25l-.1.24a1.48,1.48,0,0,0-.78-.24c-.52,0-.75.23-.75.52,0,.78,1.75.31,1.75,1.34,0,.42-.34.78-1.06.78A1.54,1.54,0,0,1,316.71,365.48Z" style="fill:#fff"></path><path d="M320,363.24h-1V363h2.3v.26h-1v2.58H320Z" style="fill:#fff"></path><rect x="289.07" y="358.22" width="1.41" height="6.3" style="fill:#FF725E"></rect><rect x="289.07" y="358.22" width="1.41" height="6.3" transform="translate(-71.6 651.14) rotate(-90)" style="fill:#FF725E"></rect><path d="M295,361.38s0,0,0-.08l0-.25v-.18c0-.07,0-.14,0-.22a3.24,3.24,0,0,0-.11-.54,4.75,4.75,0,0,0-.58-1.39A5.21,5.21,0,0,0,288,356.5a5.15,5.15,0,0,0-.68.29,5.35,5.35,0,0,0-.64.41,5.67,5.67,0,0,0-.59.51,6,6,0,0,0-.51.6,5,5,0,0,0-.74,1.43,5.12,5.12,0,0,0,0,3.28,4.91,4.91,0,0,0,.74,1.44,6,6,0,0,0,.51.6,4.6,4.6,0,0,0,.59.5,5.35,5.35,0,0,0,.64.41,4.13,4.13,0,0,0,.68.3,5.21,5.21,0,0,0,4.93-.74,5.35,5.35,0,0,0,1.33-1.48,4.75,4.75,0,0,0,.58-1.39,3.24,3.24,0,0,0,.11-.54c0-.08,0-.15,0-.22v-.18l0-.25c0-.06,0-.09,0-.09v.52a2.08,2.08,0,0,1,0,.23,3.13,3.13,0,0,1-.1.54,4.9,4.9,0,0,1-.57,1.41,5.32,5.32,0,0,1-3.56,2.51,5.38,5.38,0,0,1-2.79-.22,6,6,0,0,1-.69-.3,7.22,7.22,0,0,1-.65-.42,5.89,5.89,0,0,1-.61-.51c-.17-.2-.36-.39-.52-.62a5.33,5.33,0,0,1-.76-1.46,5.33,5.33,0,0,1,0-3.35,5.19,5.19,0,0,1,.76-1.46c.16-.23.35-.42.52-.62a5.89,5.89,0,0,1,.61-.51,5.54,5.54,0,0,1,.65-.42,6,6,0,0,1,.69-.3,5.28,5.28,0,0,1,2.79-.22,5.35,5.35,0,0,1,3.56,2.5,5.06,5.06,0,0,1,.57,1.42,3.13,3.13,0,0,1,.1.54c0,.08,0,.16,0,.22v.52Z" style="fill:#FF725E"></path><path d="M332.54,367.47c0,.14-6.91.26-15.43.26s-15.43-.12-15.43-.26,6.91-.26,15.43-.26S332.54,367.33,332.54,367.47Z" style="fill:#fff"></path></g><g id="freepik--Floor--inject-4"><path d="M466.57,474.67c0,.14-97,.26-216.56.26s-216.58-.12-216.58-.26,96.95-.26,216.58-.26S466.57,474.53,466.57,474.67Z" style="fill:#263238"></path></g><g id="freepik--Bathtub--inject-4"><path d="M344.2,474.82H141.6c-44.24,0-70.5-29.44-88.33-75.05L41.25,369,459.8,369l-8.43,23.91C433.93,442.34,391.46,474.82,344.2,474.82Z" style="fill:#455a64"></path><path d="M448.61,386.8c0,.14-89.64.26-200.19.26s-200.21-.12-200.21-.26,89.62-.27,200.21-.27S448.61,386.65,448.61,386.8Z" style="fill:#263238"></path></g><g id="freepik--Character--inject-4"><path d="M189.56,157.25c-13.92,10.14-9.33,27.26-11.91,31.49-1,1.69-2.31,3.4-2.3,5.3,0,2.08,1.57,3.94,1.73,6,.21,2.89-2.26,5.36-3.81,8a13.57,13.57,0,0,0-1.18,11.56c.28.78,1.85,1.12,1.54,2-1.72,4.83,2.87,18.28,3.54,18.27,13.75-.12,27.21-13.65,40.91-14.76,3.13-.25,5.11-5.68,7.68-7.27,3.51-2.19,4.77-6.13,5.79-9.75q1.62-5.75,3.23-11.47a43.05,43.05,0,0,0,1.65-7.54c.33-3.53-.23-7-.38-10.59-.14-3.27.08-6.56-.39-9.81a14.19,14.19,0,0,0-4.35-8.83" style="fill:#263238"></path><path d="M202.71,142.5c-9.1,2-18.68,9.33-21.79,18.11s-2.14,19.82-1.47,29.12c2.81-.73,4.68.51,7.55.15,1.87-.23,3.33-1.71,4.45-3.22,2.63-3.57,4.22-7.79,5.76-11.94Q202.7,159.9,208,145" style="fill:#263238"></path><path d="M232.19,169a23.08,23.08,0,0,0-24.83-22.09,23.76,23.76,0,0,0-21.93,23.88c.06,10.79.37,21.64,1,25.5,2,11.62,9.67,15,12.7,15.95a16,16,0,0,0,3.25.27h0a.08.08,0,0,1,.08.08l-.5,13.78c.21,9,6.43,16,15.54,15.82s15.05-8,15-17Z" style="fill:#ffbe9d"></path><path d="M191.21,179.43a1.88,1.88,0,0,0,1.86,1.86,1.83,1.83,0,0,0,2-1.72,1.88,1.88,0,0,0-1.86-1.86A1.82,1.82,0,0,0,191.21,179.43Z" style="fill:#263238"></path><path d="M188.3,173.46c.19.24,1.78-.23,3.77.26s3.28,1.62,3.54,1.48,0-.46-.58-1a6.37,6.37,0,0,0-2.78-1.43,6,6,0,0,0-3.06,0C188.5,173.05,188.21,173.34,188.3,173.46Z" style="fill:#263238"></path><path d="M210.19,178.39a1.88,1.88,0,0,0,1.86,1.86,1.83,1.83,0,0,0,1.95-1.72,1.89,1.89,0,0,0-1.86-1.87A1.84,1.84,0,0,0,210.19,178.39Z" style="fill:#263238"></path><path d="M208.59,174.84c.3.07,1.48-1.18,3.56-2s3.88-.65,4-.9-.29-.32-1.08-.4a7.91,7.91,0,0,0-3.32.52,7.15,7.15,0,0,0-2.75,1.76C208.53,174.43,208.44,174.81,208.59,174.84Z" style="fill:#263238"></path><path d="M201.57,188.66a13.9,13.9,0,0,0-3.34-.53c-.53,0-1-.14-1.12-.49a2.64,2.64,0,0,1,.34-1.53c.48-1.26,1-2.57,1.5-4,2.09-5.62,3.6-10.24,3.37-10.32s-2.11,4.41-4.2,10c-.5,1.39-1,2.71-1.44,4a2.89,2.89,0,0,0-.25,2,1.31,1.31,0,0,0,.87.74,4.48,4.48,0,0,0,.89.11A13.34,13.34,0,0,0,201.57,188.66Z" style="fill:#263238"></path><path d="M202.5,212.53s7.93.51,17.78-5.51c0,0-3,10.35-17.91,9.22Z" style="fill:#eb996e"></path><path d="M202.49,193.51a3.74,3.74,0,0,1,3.3-1.4,3.38,3.38,0,0,1,2.35,1.19,2.07,2.07,0,0,1,.19,2.4,2.54,2.54,0,0,1-2.69.72,7.82,7.82,0,0,1-2.64-1.5,2.21,2.21,0,0,1-.59-.59.66.66,0,0,1,0-.75" style="fill:#eb996e"></path><path d="M208.26,167.17c.27.52,2.27,0,4.69-.07s4.44.32,4.69-.21c.11-.25-.29-.71-1.14-1.13a8.25,8.25,0,0,0-7.15.21C208.52,166.44,208.14,166.92,208.26,167.17Z" style="fill:#263238"></path><path d="M188.71,166.81c.37.45,1.78-.05,3.48-.09s3.14.25,3.47-.23c.14-.24-.09-.69-.72-1.12a4.85,4.85,0,0,0-2.84-.7,4.91,4.91,0,0,0-2.76,1C188.74,166.12,188.55,166.59,188.71,166.81Z" style="fill:#263238"></path><path d="M202.29,141.45c-2.46,6.08.69,13,6.64,15.7,2.57,1.19,5.79,1.74,7.17,4.21,1.08,1.91.68,4.47,2,6.21s3.59,2,5.33,3.1c2.38,1.55,3.46,4.49,3.86,7.3s.28,5.69,1,8.44,2.53,5.47,5.28,6.15c1.27-8.11,2.38-16.34,1.49-24.5s-4-16.33-10-21.91-15.26-8-22.76-4.7" style="fill:#263238"></path><path d="M232.53,222a11.13,11.13,0,0,1-9.15-10.08c-.38-4.76,0-9.94-.85-12.61-1.42-4.75-3.75-4-4.1-9s2.86-10,2-14.31-2.19-3.22-4.4-10-6.14-8.42-6.14-8.42L212,141l-1.64-1c9.87-.17,21.22,5.92,25.09,15,1.95,4.58,2.64,9.92,6.11,13.49,2.19,2.24,5.3,3.54,7.13,6.09,3.91,5.45.18,13.43,2.78,19.61,1.17,2.77,3.76,4.66,5.31,7.23,7.88,13.15,1.26,23.15,1.26,23.15L232.53,222Z" style="fill:#263238"></path><path d="M177.12,192.18c1-1.79,2.14-3.82,1.65-5.84-.34-1.41-1.4-2.54-1.9-3.91a6.82,6.82,0,0,1,.22-5.35c.57-1.74,1.4-3.38,1.85-5.15.35-1.41.46-2.89.95-4.26a4.45,4.45,0,0,1,2.92-3c1.35,6.42-.8,13-.78,19.58a11.24,11.24,0,0,1-.42,4.26c-.54,1.34-2,2.47-3.34,2.11" style="fill:#263238"></path><path d="M246.67,222.72s.16-.32.35-.95a7.24,7.24,0,0,0,.29-2.84A12.17,12.17,0,0,0,246,214.6a42.51,42.51,0,0,0-3.34-5.07,16.52,16.52,0,0,1-3.17-6.69c-.52-2.66-.27-5.54-.29-8.5a18.62,18.62,0,0,0-.5-4.49,8.56,8.56,0,0,0-2.25-4c-1.11-1.14-2.5-2.07-3.76-3.21a9.36,9.36,0,0,1-2.79-4.36c-1-3.42-.53-6.86-.94-10a18.81,18.81,0,0,0-9.52-14.06c-2.31-1.26-4.64-2.1-6.72-3a25.93,25.93,0,0,1-5.4-2.89,13.34,13.34,0,0,1-3.25-3.28,8.42,8.42,0,0,1-1.25-2.63,4.71,4.71,0,0,1-.19-1s.08.34.29,1a9.21,9.21,0,0,0,1.31,2.56,13.69,13.69,0,0,0,3.26,3.15,25.36,25.36,0,0,0,5.37,2.79,66.89,66.89,0,0,1,6.79,3,18.92,18.92,0,0,1,6.37,5.63,19.19,19.19,0,0,1,3.45,8.74c.42,3.26,0,6.69.93,9.95a8.67,8.67,0,0,0,2.64,4.12c1.22,1.12,2.61,2.05,3.77,3.24a9,9,0,0,1,2.37,4.24,19.29,19.29,0,0,1,.5,4.6c0,3-.25,5.84.23,8.43a16.31,16.31,0,0,0,3.05,6.56,40.47,40.47,0,0,1,3.3,5.15,12.14,12.14,0,0,1,1.27,4.44,6.9,6.9,0,0,1-.39,2.89A3.81,3.81,0,0,1,246.67,222.72Z" style="fill:#455a64"></path><path d="M210.2,191.7c.1.28-1.8,1.18-4,2.47s-4,2.48-4.15,2.26,1.3-1.82,3.62-3.16S210.12,191.43,210.2,191.7Z" style="fill:#263238"></path><path d="M136.87,423.6l8.94,33.91s-28.64,13.25-27.35,18.93l55.15-9.18-7.79-56.88Z" style="fill:#FF725E"></path><path d="M143.28,431.57c-.14.08-1.17-1.86-1.89-4.41a17.39,17.39,0,0,1-1-4.7,30.53,30.53,0,0,1,1.46,4.55C142.6,429.54,143.39,431.5,143.28,431.57Z" style="fill:#263238"></path><path d="M177.54,332.2l17.62-2.53.75-3.37h72.16s5.09,10.77,6.59,15.13-44.2,25.83-44.2,25.83l-48.94-21.95Z" style="fill:#263238"></path><path d="M199.09,336.63S140,311,129,311.19c-6.14.11-16.67,2.87-18.86,9.43s-3.28,14.52-3,19.4,30.6,83.35,30.6,83.35l26.41-9.13-10.56-49.35,46.27-.27Z" style="fill:#ffbe9d"></path><path d="M152.93,362.27c-.1,0-.41-1.7-1.32-4.33a35.81,35.81,0,0,0-1.94-4.49,35.5,35.5,0,0,0-7.15-9.54,33.92,33.92,0,0,0-3.77-3.11c-2.27-1.62-3.83-2.39-3.78-2.48a4.75,4.75,0,0,1,1.12.49,14,14,0,0,1,1.26.68c.48.29,1,.59,1.61,1a32.09,32.09,0,0,1,3.89,3.06,33.06,33.06,0,0,1,7.25,9.67,31.82,31.82,0,0,1,1.86,4.59c.23.67.37,1.29.51,1.83a12.45,12.45,0,0,1,.3,1.4A5.7,5.7,0,0,1,152.93,362.27Z" style="fill:#eb996e"></path><path d="M238.26,339.24c0,.26-67.34-5-76.92-4.5-8.54.42-15.57,1.54-19.47,11.59-.63,1.62-1.3,5.63-1.29,11.17,0,11.63,1.84,30.3,3.51,48,2.3,24.3,4.63,46.74,4.63,46.74l23.88-2.1s7.41-47,6.81-61.18c-.26-6.23-2.64-16.17-2.64-16.17s24.6,7,39.1,7.37c12.51.35,36.91.64,36.91.64Z" style="fill:#ffbe9d"></path><path d="M271.28,334.44s7.79,12.82,5.84,23.11a22.55,22.55,0,0,1-.73,2.82,30.61,30.61,0,0,1-29.3,21l-24.24-.08c2.21-16.31-1-29-11.95-44.43C210.9,336.9,261.12,331.48,271.28,334.44Z" style="fill:#263238"></path><path d="M211.07,337.26h-.41l-1.19,0-4.61-.2L188,336.22c-7.14-.34-15.65-.82-25.08-1.23a35.1,35.1,0,0,0-7.18.56,20.88,20.88,0,0,0-7,2.54,14.78,14.78,0,0,0-5.32,5.47,20.22,20.22,0,0,0-2.3,7.58,58.46,58.46,0,0,0-.22,8c0,2.64.26,5.26.42,7.82.38,5.13.75,10.08,1.1,14.79.76,9.42,1.44,17.91,2,25s1,12.87,1.36,16.88c.15,2,.27,3.52.35,4.59,0,.51.06.91.08,1.2a1.82,1.82,0,0,1,0,.41,2.26,2.26,0,0,1-.06-.41c0-.29-.08-.68-.13-1.19-.11-1.07-.26-2.61-.45-4.58-.36-4-.88-9.77-1.52-16.87s-1.33-15.61-2.13-25c-.38-4.71-.77-9.66-1.13-14.8-.16-2.57-.38-5.17-.43-7.85a59.63,59.63,0,0,1,.22-8.1,20.91,20.91,0,0,1,2.37-7.78,15.2,15.2,0,0,1,5.5-5.64,21.38,21.38,0,0,1,7.17-2.6,35.39,35.39,0,0,1,7.28-.55c9.45.43,17.94,1,25.09,1.34l16.91,1,4.59.29,1.2.09Z" style="fill:#eb996e"></path><path d="M164.1,357.61a2.59,2.59,0,0,1,.72.33,18.73,18.73,0,0,1,1.82,1.17,26.91,26.91,0,0,1,5.12,4.95,35,35,0,0,1,3.85,6,11.9,11.9,0,0,1,1.16,2.71,25.74,25.74,0,0,1-1.48-2.54,45.08,45.08,0,0,0-3.94-5.83,31.91,31.91,0,0,0-4.94-5C165,358.28,164.05,357.69,164.1,357.61Z" style="fill:#eb996e"></path><path d="M246.26,331.08a6.79,6.79,0,0,1-1.4.39c-.92.2-2.25.43-3.9.66-3.3.48-7.88,1-12.93,1.49s-9.62,1-12.89,1.61a15.56,15.56,0,0,0-3.76,1c-.42.19-.61.5-.5.71s.21.29.19.31a.58.58,0,0,1-.28-.26.48.48,0,0,1,0-.49,1.39,1.39,0,0,1,.48-.45,13.9,13.9,0,0,1,3.79-1.19c3.28-.68,7.85-1.23,12.91-1.77s9.63-1,12.93-1.33c1.66-.19,3-.36,3.91-.5A11,11,0,0,1,246.26,331.08Z" style="fill:#455a64"></path><path d="M199.09,336.63a5.36,5.36,0,0,1-2.49-2.5,7.69,7.69,0,0,1-1.08-3.36c.17-.06.66,1.45,1.54,3.1S199.19,336.5,199.09,336.63Z" style="fill:#455a64"></path><path d="M215,357.72a5.91,5.91,0,0,1-.57.93c-.39.59-1,1.43-1.75,2.43a40.45,40.45,0,0,1-2.87,3.38,18.2,18.2,0,0,1-4.31,3.33c-1.67,1-3.31,1.78-4.74,2.62a20.51,20.51,0,0,0-3.56,2.54,13.49,13.49,0,0,0-2.51,3.16.84.84,0,0,1,.09-.27,7.69,7.69,0,0,1,.36-.74,10.89,10.89,0,0,1,1.87-2.35,19.35,19.35,0,0,1,3.57-2.65c1.43-.86,3.08-1.68,4.73-2.64,3.38-1.84,5.56-4.63,7.16-6.55.79-1,1.41-1.79,1.84-2.34A6.48,6.48,0,0,1,215,357.72Z" style="fill:#263238"></path><path d="M207.08,364.66a2.24,2.24,0,0,1-.4-.55,7.55,7.55,0,0,1-.74-1.71,5.72,5.72,0,0,1-.12-2.77,4.39,4.39,0,0,1,1.91-2.8.68.68,0,0,1,.26-.13.35.35,0,0,1,.26.07.42.42,0,0,1,.11.14l.2.4a5.1,5.1,0,0,1,.31.82,6.36,6.36,0,0,1,.29,1.62,6.91,6.91,0,0,1-.41,2.74,5.9,5.9,0,0,1-.9,1.63c-.27.34-.46.5-.47.48a10.44,10.44,0,0,0,1.12-2.2,7.31,7.31,0,0,0,.31-2.63,6.18,6.18,0,0,0-.3-1.53,4.89,4.89,0,0,0-.3-.77l-.19-.37s0,0,0-.05,0-.07,0,0,0,0,0,.06l-.09.06a4.12,4.12,0,0,0-1.76,2.55,5.6,5.6,0,0,0,0,2.62A18.73,18.73,0,0,0,207.08,364.66Z" style="fill:#263238"></path><path d="M205.55,368.81a6.26,6.26,0,0,0,1.36,1.82,4.79,4.79,0,0,0,2.18,1.05,3.22,3.22,0,0,0,2.75-.56,1.66,1.66,0,0,0,.28-.39l0,.21a7.2,7.2,0,0,0-4.49-2.24,9.31,9.31,0,0,0-2.11.11,1.56,1.56,0,0,1,.54-.22,4.9,4.9,0,0,1,1.59-.16,7.09,7.09,0,0,1,4.75,2.25l.09.09-.06.12a1.56,1.56,0,0,1-.35.5,2.77,2.77,0,0,1-1.55.7A4.16,4.16,0,0,1,209,372a4.8,4.8,0,0,1-2.29-1.2,4.26,4.26,0,0,1-1-1.41A1.44,1.44,0,0,1,205.55,368.81Z" style="fill:#263238"></path><path d="M197.83,371.06a3.12,3.12,0,0,1,.49-.6,19.21,19.21,0,0,0,1.33-1.63,7,7,0,0,0,1.18-2.82,18,18,0,0,0,.16-3.81l.3.15-.15.11a10.5,10.5,0,0,0-2.81,2.63,5.9,5.9,0,0,0-.92,2.94,7.6,7.6,0,0,0,.52,2.85,2,2,0,0,1-.39-.7,5.66,5.66,0,0,1-.4-2.15,5.88,5.88,0,0,1,.89-3.13,10.26,10.26,0,0,1,2.88-2.75l.16-.12.29-.21v.37a17,17,0,0,1-.19,3.89,7.06,7.06,0,0,1-1.31,2.91,12.7,12.7,0,0,1-1.44,1.57A2.6,2.6,0,0,1,197.83,371.06Z" style="fill:#263238"></path><path d="M196.43,374.91s0,0,.08.14a2.25,2.25,0,0,0,.32.35,2.6,2.6,0,0,0,.61.44c.26.16.55.34.89.51a5.52,5.52,0,0,0,2.47.69,3.42,3.42,0,0,0,1.46-.28,4.18,4.18,0,0,0,1.27-1l.21-.24.07.3c-1.07-.45-1.92-1.11-2.79-1.47a4.12,4.12,0,0,0-2.42-.27,9.67,9.67,0,0,0-2.17.81,1.73,1.73,0,0,1,.5-.4,5,5,0,0,1,1.62-.67,4.2,4.2,0,0,1,2.6.21c.93.37,1.8,1,2.81,1.44l.25.1-.18.2-.22.25a4.43,4.43,0,0,1-1.4,1.07,3.74,3.74,0,0,1-1.62.29,5.62,5.62,0,0,1-2.59-.81,9.43,9.43,0,0,1-.87-.57,2.69,2.69,0,0,1-.61-.51C196.43,375.19,196.37,374.9,196.43,374.91Z" style="fill:#263238"></path><path d="M205,372.86A1.63,1.63,0,0,0,205,372a.93.93,0,0,0-.61-.61.91.91,0,0,0-1,.3.9.9,0,0,0-.07,1,1,1,0,0,0,.73.46c.55,0,.81-.32.85-.27s0,.11-.14.24a1,1,0,0,1-.71.3,1.2,1.2,0,0,1-1-.54,1.23,1.23,0,0,1,1.44-1.83,1.19,1.19,0,0,1,.77.88,1.06,1.06,0,0,1-.12.76C205.06,372.82,205,372.88,205,372.86Z" style="fill:#263238"></path><path d="M204.8,365.91c-.06,0,.22-.36.06-.89a.9.9,0,0,0-.61-.6.89.89,0,1,0-.3,1.75c.55,0,.81-.31.85-.26s0,.11-.14.24a1.07,1.07,0,0,1-.71.3,1.21,1.21,0,0,1-1-.55,1.23,1.23,0,0,1,1.44-1.82,1.18,1.18,0,0,1,.77.88,1.07,1.07,0,0,1-.12.76C204.91,365.87,204.82,365.92,204.8,365.91Z" style="fill:#263238"></path><path d="M214.11,367.54a3.11,3.11,0,0,1,.17-.42,1.8,1.8,0,0,0,0-1.15,1.7,1.7,0,0,0-1.13-1.15,1.66,1.66,0,0,0-1.82.55,1.69,1.69,0,0,0,1.26,2.73,1.84,1.84,0,0,0,1.11-.3c.24-.16.35-.28.37-.26s-.05.17-.27.38a1.89,1.89,0,0,1-1.21.46,2,2,0,0,1-1.68-.92,2,2,0,0,1,2.36-3,2,2,0,0,1,1.28,1.42,1.88,1.88,0,0,1-.17,1.28C214.27,367.45,214.13,367.56,214.11,367.54Z" style="fill:#263238"></path><path d="M211.62,362.33a4.6,4.6,0,0,1,.75-.15,5,5,0,0,0,1.85-.81A4.73,4.73,0,0,0,216,359a9.08,9.08,0,0,0,.32-3.66l.26.17-.1,0a10.27,10.27,0,0,0-3.23,1.85,9.77,9.77,0,0,0-1.16,1.16,3.09,3.09,0,0,0-.8,3.18,3.41,3.41,0,0,1,.12.76,2.71,2.71,0,0,1-.27-.73,3.86,3.86,0,0,1-.07-2.14,4.09,4.09,0,0,1,.77-1.28,11.17,11.17,0,0,1,1.18-1.22,10.4,10.4,0,0,1,3.34-1.95l.1,0,.23-.08,0,.25a9.32,9.32,0,0,1-.37,3.81,4.89,4.89,0,0,1-1.94,2.46,4.75,4.75,0,0,1-2,.73A1.93,1.93,0,0,1,211.62,362.33Z" style="fill:#263238"></path><path d="M210.43,370.63a21.56,21.56,0,0,1-2.52-1,24.76,24.76,0,0,1-2.54-.94,6.05,6.05,0,0,1,2.68.58A6.18,6.18,0,0,1,210.43,370.63Z" style="fill:#263238"></path><path d="M207.34,364.78c-.1,0,.2-1.1.23-2.46a11.45,11.45,0,0,1,.15-2.49,6.42,6.42,0,0,1,.24,2.5A4.3,4.3,0,0,1,207.34,364.78Z" style="fill:#263238"></path><path d="M199.4,366c.09.05-.34,1.13-.69,2.54a9.44,9.44,0,0,1-.84,2.52,9.4,9.4,0,0,1,.46-2.62A5.54,5.54,0,0,1,199.4,366Z" style="fill:#263238"></path><path d="M200.91,375.74a4,4,0,0,1-2.31,0,4.12,4.12,0,0,1-2.11-.92c0-.1,1,.3,2.19.54S200.9,375.63,200.91,375.74Z" style="fill:#263238"></path><path d="M193.67,357.63a5.62,5.62,0,0,1,.58-.93c.4-.58,1-1.41,1.77-2.41a41.07,41.07,0,0,1,2.89-3.36,18.61,18.61,0,0,1,4.35-3.29c1.67-1,3.32-1.75,4.76-2.57a20.2,20.2,0,0,0,3.58-2.52,13,13,0,0,0,2.53-3.14.84.84,0,0,1-.09.27,5.55,5.55,0,0,1-.37.73,10,10,0,0,1-1.88,2.34,19.41,19.41,0,0,1-3.59,2.62c-1.44.86-3.09,1.66-4.75,2.61-3.41,1.8-5.6,4.58-7.22,6.48-.8,1-1.42,1.78-1.86,2.33A6.15,6.15,0,0,1,193.67,357.63Z" style="fill:#263238"></path><path d="M201.68,350.76a2.2,2.2,0,0,1,.4.56,6.86,6.86,0,0,1,.72,1.71,5.62,5.62,0,0,1,.1,2.77,4.44,4.44,0,0,1-1.93,2.79,1,1,0,0,1-.27.12.31.31,0,0,1-.25-.07.42.42,0,0,1-.11-.14l-.2-.4a7,7,0,0,1-.31-.83,6.31,6.31,0,0,1-.27-1.62,6.81,6.81,0,0,1,.43-2.73,5.65,5.65,0,0,1,.91-1.62,2,2,0,0,1,.48-.49,10.46,10.46,0,0,0-1.13,2.2,7.22,7.22,0,0,0-.34,2.62,7,7,0,0,0,.28,1.53,5.12,5.12,0,0,0,.3.77l.18.38s.05,0,0,.05,0,.07,0,0,0,0,0-.06l.09-.05a4.15,4.15,0,0,0,1.78-2.55,5.63,5.63,0,0,0,0-2.62A19,19,0,0,0,201.68,350.76Z" style="fill:#263238"></path><path d="M203.24,346.62a6.25,6.25,0,0,0-1.34-1.83,4.86,4.86,0,0,0-2.17-1.07,3.25,3.25,0,0,0-2.75.54,1.28,1.28,0,0,0-.28.39l0-.21a7.22,7.22,0,0,0,4.46,2.28,9,9,0,0,0,2.11-.1s-.17.12-.54.22a5,5,0,0,1-1.59.14,7.07,7.07,0,0,1-4.73-2.29l-.09-.09.06-.12a1.55,1.55,0,0,1,.36-.49,2.79,2.79,0,0,1,1.55-.69,4.43,4.43,0,0,1,1.55.07,4.84,4.84,0,0,1,2.27,1.22,4.32,4.32,0,0,1,1,1.42A1.32,1.32,0,0,1,203.24,346.62Z" style="fill:#263238"></path><path d="M211,344.43a3.12,3.12,0,0,1-.49.6,18.56,18.56,0,0,0-1.34,1.62,6.92,6.92,0,0,0-1.21,2.81,18.59,18.59,0,0,0-.19,3.81l-.3-.15.15-.11a10.39,10.39,0,0,0,2.83-2.61,5.9,5.9,0,0,0,.95-2.93,7.54,7.54,0,0,0-.5-2.86,2.18,2.18,0,0,1,.39.71,5.73,5.73,0,0,1,.38,2.16,5.93,5.93,0,0,1-.92,3.12,10.25,10.25,0,0,1-2.9,2.72l-.16.11-.3.21v-.36a16.92,16.92,0,0,1,.22-3.89,7,7,0,0,1,1.34-2.9,13.21,13.21,0,0,1,1.45-1.56A4.08,4.08,0,0,1,211,344.43Z" style="fill:#263238"></path><path d="M212.41,340.6a.51.51,0,0,0-.07-.14,2.75,2.75,0,0,0-.32-.36,3.33,3.33,0,0,0-.61-.44c-.25-.16-.55-.34-.88-.51a5.52,5.52,0,0,0-2.47-.72,3.36,3.36,0,0,0-1.45.27,3.92,3.92,0,0,0-1.28,1l-.22.24-.07-.31c1.07.46,1.92,1.13,2.78,1.5a4.14,4.14,0,0,0,2.42.29,9.24,9.24,0,0,0,2.17-.79s-.15.17-.5.39a5.28,5.28,0,0,1-1.62.67,4.29,4.29,0,0,1-2.6-.24c-.93-.37-1.79-1-2.8-1.46l-.25-.11.18-.2.23-.24a4.26,4.26,0,0,1,1.4-1.06,3.77,3.77,0,0,1,1.63-.28,5.58,5.58,0,0,1,2.58.84,8.78,8.78,0,0,1,.87.57,2.91,2.91,0,0,1,.6.52C212.42,340.32,212.47,340.6,212.41,340.6Z" style="fill:#263238"></path><path d="M203.88,342.57c.06,0-.23.36-.07.89a.93.93,0,0,0,.61.61.91.91,0,0,0,1-.29.9.9,0,0,0,.07-1,.92.92,0,0,0-.72-.46c-.55,0-.81.31-.85.25s0-.11.14-.24a1.09,1.09,0,0,1,.71-.29,1.21,1.21,0,0,1,1,.56,1.22,1.22,0,0,1-.08,1.42,1.24,1.24,0,0,1-1.38.39,1.2,1.2,0,0,1-.76-.88,1.11,1.11,0,0,1,.13-.76C203.77,342.61,203.86,342.56,203.88,342.57Z" style="fill:#263238"></path><path d="M204,349.53c.06,0-.22.36-.07.88a.94.94,0,0,0,.61.62.91.91,0,0,0,1-.29.92.92,0,0,0,.08-1,.93.93,0,0,0-.73-.47c-.55,0-.81.31-.85.26s0-.11.14-.24a1.05,1.05,0,0,1,.72-.29,1.17,1.17,0,0,1,1,.55,1.23,1.23,0,0,1-1.46,1.81,1.2,1.2,0,0,1-.76-.88,1.11,1.11,0,0,1,.13-.76C203.86,349.57,204,349.51,204,349.53Z" style="fill:#263238"></path><path d="M194.67,347.82s-.07.15-.17.42a1.86,1.86,0,0,0-.05,1.15,1.68,1.68,0,1,0,1.71-2.12,1.9,1.9,0,0,0-1.12.29c-.23.16-.34.28-.37.26s.05-.17.28-.38a1.84,1.84,0,0,1,1.21-.44,2,2,0,0,1,1.68.93,2,2,0,0,1-.14,2.32,2,2,0,0,1-2.25.64,2,2,0,0,1-1.26-1.44,1.9,1.9,0,0,1,.17-1.28C194.52,347.91,194.66,347.8,194.67,347.82Z" style="fill:#263238"></path><path d="M197.12,353.06s-.27,0-.75.13a5,5,0,0,0-1.85.8,4.66,4.66,0,0,0-1.78,2.33,9.24,9.24,0,0,0-.35,3.66l-.25-.17.09,0a10.15,10.15,0,0,0,3.25-1.83,9.76,9.76,0,0,0,1.17-1.14,4.1,4.1,0,0,0,.77-1.16,4,4,0,0,0,.06-2,4.53,4.53,0,0,1-.12-.77,2.5,2.5,0,0,1,.27.73,3.74,3.74,0,0,1,0,2.14,3.94,3.94,0,0,1-.78,1.28,9.54,9.54,0,0,1-1.18,1.21,10.34,10.34,0,0,1-3.36,1.92l-.09,0-.24.08,0-.25a9.15,9.15,0,0,1,.41-3.81,4.87,4.87,0,0,1,3.94-3.16A1.88,1.88,0,0,1,197.12,353.06Z" style="fill:#263238"></path><path d="M198.38,344.76a20.48,20.48,0,0,1,2.51,1,23.92,23.92,0,0,1,2.53,1,8.9,8.9,0,0,1-5-2Z" style="fill:#263238"></path><path d="M201.42,350.64c.1,0-.2,1.1-.25,2.46a11.49,11.49,0,0,1-.17,2.49,6.54,6.54,0,0,1-.22-2.51A4.26,4.26,0,0,1,201.42,350.64Z" style="fill:#263238"></path><path d="M209.37,349.53c-.09,0,.35-1.13.71-2.53a10.07,10.07,0,0,1,.86-2.52,8.94,8.94,0,0,1-.48,2.62A5.49,5.49,0,0,1,209.37,349.53Z" style="fill:#263238"></path><path d="M208,339.73a5.56,5.56,0,0,1,4.4.95c0,.1-1-.31-2.18-.56S208,339.85,208,339.73Z" style="fill:#263238"></path><path d="M192.94,225.25l12-3.36,22.7-1.76,20.78,3.18-23.83,28.37H205.47s-13.59-5.21-14.12-5.69,1.42-19.84,1.42-19.84" style="fill:#ffbe9d"></path><path d="M195.54,224.1s-21.64,4-25.19,11.62c0,0,16.57,58.1,19.52,62.54s6.9,11.82,5.67,14.78-4.68,4.43-3.2,8.62c0,0,2.46,11.58,25.87,11.33s40.65-6.89,47.55-4.18,5.17-5.42,2.21-8.87-4.68-9.61-5.42-14.05-4.78-81.43-4.78-81.43L237,221.68s-.1,21.15-21.7,22.38S195.54,224.1,195.54,224.1Z" style="fill:#FF725E"></path><g style="opacity:0.30000000000000004"><path d="M201,265.61a35.25,35.25,0,0,0-13.37,3.07,18.75,18.75,0,0,0-9.45,9.64c-1.67,4.29-1.13,9.54,1.92,13l6.51-1c.58-2.94,3.12-5.06,5.61-6.73s5.23-3.32,6.59-6c.7-1.39,1-3,1.93-4.23,1.72-2.31,5-2.68,7.82-2.95s6.13-.92,7.52-3.43A48.11,48.11,0,0,0,201,265.61Z"></path></g><path d="M257.55,224.41s4,.38,8.49,7.31,8.8,39.1,8.8,39.1l-27.69,1.12s-2.44-10.85-1.5-14S257.55,224.41,257.55,224.41Z" style="fill:#FF725E"></path><path d="M171.31,234.23a26,26,0,0,0-4.61,11.15c-.94,6.41-2.46,11.86-3.15,15.45s-1.83,10.6-1.83,10.6l21.52.69Z" style="fill:#FF725E"></path><path d="M180.63,269.26c-.14,0-1.43-4.88-2.87-11s-2.51-11.06-2.37-11.09,1.42,4.88,2.87,11S180.77,269.23,180.63,269.26Z" style="fill:#263238"></path><g style="opacity:0.30000000000000004"><path d="M260.1,316.45q-5.48-13-11-25.95c-1.29-3.05-2.67-6.23-5.23-8.33s-6.67-2.71-9.07-.43l-.43.62a8,8,0,0,0,.44,5.91c.79,1.86,2,3.54,2.91,5.33,4,7.55,3.66,16.63,6.6,24.64a17.68,17.68,0,0,0,4.07,6.74,9.47,9.47,0,0,0,7.15,2.85,6.52,6.52,0,0,0,5.82-4.62C261.94,320.94,261,318.6,260.1,316.45Z"></path></g><path d="M246.59,244.89c.06,0,0,.93.11,2.43.07,1.69.15,3.67.24,5.86s.19,4.37.22,5.87a11.72,11.72,0,0,1,0,2.44,11.47,11.47,0,0,1-.32-2.42c-.14-1.5-.28-3.57-.38-5.87s-.14-4.37-.09-5.88A7.14,7.14,0,0,1,246.59,244.89Z" style="fill:#263238"></path><path d="M237.37,308.82a7,7,0,0,1-1.41.37c-.92.21-2.25.47-3.91.75a99.88,99.88,0,0,1-26.15.82c-1.67-.17-3-.35-4-.5a9.29,9.29,0,0,1-1.43-.28,7,7,0,0,1,1.46.08c.93.09,2.28.21,4,.33a125.06,125.06,0,0,0,13.06.3,127.6,127.6,0,0,0,13-1.11c1.66-.23,3-.44,3.92-.59A7.65,7.65,0,0,1,237.37,308.82Z" style="fill:#263238"></path><path d="M239.79,313.07a6.45,6.45,0,0,1-1.24.08l-3.38.06c-2.86.05-6.8.16-11.15.43s-8.28.63-11.12.92l-3.36.35a6.17,6.17,0,0,1-1.25.07,5.53,5.53,0,0,1,1.22-.27c.79-.15,1.93-.32,3.35-.52,2.83-.38,6.77-.81,11.13-1.07s8.31-.32,11.17-.28c1.43,0,2.59.06,3.39.11A5.19,5.19,0,0,1,239.79,313.07Z" style="fill:#263238"></path><path d="M228.42,291.24a3.1,3.1,0,0,1-.94.1,22.21,22.21,0,0,1-2.59-.06,31.8,31.8,0,0,1-8.37-1.73,32.7,32.7,0,0,1-7.62-3.86,21.8,21.8,0,0,1-2.05-1.58c-.46-.4-.71-.63-.68-.66s1.11.77,2.94,1.93a37.91,37.91,0,0,0,7.59,3.68,37.51,37.51,0,0,0,8.22,1.86C227.07,291.15,228.42,291.15,228.42,291.24Z" style="fill:#263238"></path><g style="opacity:0.30000000000000004"><path d="M204.44,310.44h0c10.55,4.11,23.14,3.69,33.14-1.62A106.22,106.22,0,0,1,204.44,310.44Z"></path></g><g style="opacity:0.30000000000000004"><path d="M175.77,248.85l-.06.07a20.9,20.9,0,0,0,3.16,12.92C177.93,257.7,177,253.18,175.77,248.85Z"></path></g><path d="M241.07,221.91a3.47,3.47,0,0,1-.1.78c-.08.5-.21,1.24-.4,2.2a42.42,42.42,0,0,1-2.28,7.9,21,21,0,0,1-2.87,4.93,19.46,19.46,0,0,1-4.94,4.31,40.29,40.29,0,0,1-6.48,3.2,36.86,36.86,0,0,1-7.47,2.11,22.7,22.7,0,0,1-14.64-2.16A18.41,18.41,0,0,1,194,236a17.55,17.55,0,0,1-1.21-4.55,17.8,17.8,0,0,1-.13-3.55,13.48,13.48,0,0,1,.53-3c.07,0-.23,1.06-.33,3a18.91,18.91,0,0,0,.22,3.5,17.46,17.46,0,0,0,1.26,4.45,18.19,18.19,0,0,0,7.79,8.87,22.4,22.4,0,0,0,14.33,2.06,36.41,36.41,0,0,0,7.37-2.07,40.16,40.16,0,0,0,6.41-3.13,18.93,18.93,0,0,0,4.85-4.17,20.79,20.79,0,0,0,2.87-4.8,45,45,0,0,0,2.42-7.81c.21-.9.37-1.63.5-2.17A5.16,5.16,0,0,1,241.07,221.91Z" style="fill:#263238"></path><path d="M209.28,285.52s0,.22-.08.62-.14,1-.2,1.78a19.81,19.81,0,0,0,.57,6.74,17.09,17.09,0,0,0,5.58,8.75A19.4,19.4,0,0,0,227.78,308l1.28,0-1.21.44c-5.46,2-12.4,1.12-18.1-2.54a21.54,21.54,0,0,1-7.08-7.56,20.29,20.29,0,0,1-2.48-10.55,19.82,19.82,0,0,1,1.17-5.84c.36-.92.8-1.79,1.19-2.68l.6-1.32c.23-.42.5-.82.74-1.23l.75-1.23a7.8,7.8,0,0,1,.8-1.17l1.77-2.2,2-1.92c.68-.62,1.46-1.11,2.18-1.66a25,25,0,0,1,9.61-3.86c.81-.16,1.64-.22,2.44-.34s1.62-.11,2.41-.1a25.17,25.17,0,0,1,4.63.36l.78.14-.75.27a52.63,52.63,0,0,0-11.45,5.56,28.5,28.5,0,0,0-7.18,6.53,20.34,20.34,0,0,0-3,5.43c-.25.68-.36,1.22-.48,1.57s-.18.53-.18.53,0-.18.12-.55.19-.9.42-1.59a19.69,19.69,0,0,1,2.92-5.54,28.63,28.63,0,0,1,7.19-6.66,52.14,52.14,0,0,1,11.49-5.68l0,.41a26.35,26.35,0,0,0-18.73,3.93c-.69.54-1.46,1-2.12,1.63l-2,1.89-1.73,2.15a7.59,7.59,0,0,0-.78,1.16l-.73,1.2c-.25.4-.5.8-.74,1.21l-.58,1.3c-.39.88-.82,1.74-1.17,2.64a19.06,19.06,0,0,0-1.14,5.68A19.87,19.87,0,0,0,203.12,298a21,21,0,0,0,6.9,7.39c5.57,3.59,12.36,4.47,17.69,2.55l.07.42a19.65,19.65,0,0,1-12.86-4.7,17.22,17.22,0,0,1-5.59-9,19.49,19.49,0,0,1-.47-6.82A15.52,15.52,0,0,1,209.28,285.52Z" style="fill:#fff"></path><g style="opacity:0.30000000000000004"><path d="M206.76,283.92l.34.34a15.85,15.85,0,0,0,21,7.23A34.46,34.46,0,0,1,206.76,283.92Z"></path></g><path d="M145.73,424.6l3.37,34.69s-30.75,11.33-30.64,17.15l55.89-2,3.89-57.28Z" style="fill:#FF725E"></path><path d="M175.18,465.12c0,.09-1.06,0-2.72.33a15.2,15.2,0,0,0-10.5,7.11c-.88,1.44-1.22,2.44-1.31,2.41a2,2,0,0,1,.17-.73,11.58,11.58,0,0,1,.82-1.86,14.18,14.18,0,0,1,10.77-7.3,11.54,11.54,0,0,1,2-.07A2.07,2.07,0,0,1,175.18,465.12Z" style="fill:#263238"></path><path d="M134.81,476a22.68,22.68,0,0,0-1.21-4.89,23.46,23.46,0,0,0-2.7-4.26,10,10,0,0,1,3.91,9.15Z" style="fill:#263238"></path><path d="M152.63,434.13c-.15,0,0-2.39-.27-5.29s-.94-5.2-.79-5.24a18.24,18.24,0,0,1,1.06,10.53Z" style="fill:#263238"></path><path d="M161,431.57c-.16,0,.24-2.37.06-5.25s-.82-5.15-.67-5.2a12.36,12.36,0,0,1,1.19,5.17A12.59,12.59,0,0,1,161,431.57Z" style="fill:#263238"></path><path d="M169.92,430a17,17,0,0,0-.92-10.73,9.39,9.39,0,0,1,1.85,5.24A9.55,9.55,0,0,1,169.92,430Z" style="fill:#263238"></path><path d="M141.6,475.62a41.94,41.94,0,0,0-1.89-6c-1.44-3.16-3-5.57-2.84-5.66a6.18,6.18,0,0,1,1.13,1.49,28.78,28.78,0,0,1,2.18,4A13.36,13.36,0,0,1,141.6,475.62Z" style="fill:#fff"></path><path d="M148.86,475.31A34.32,34.32,0,0,0,146.5,468a34.2,34.2,0,0,0-4.41-6.34,7.34,7.34,0,0,1,1.73,1.52,19.74,19.74,0,0,1,3.14,4.59A19.36,19.36,0,0,1,148.7,473,7.32,7.32,0,0,1,148.86,475.31Z" style="fill:#fff"></path><path d="M159.25,475.11c-.09,0-.34-1.05-.93-2.7a28,28,0,0,0-3.11-6.07,27.5,27.5,0,0,0-4.52-5.11c-1.31-1.16-2.21-1.78-2.17-1.85a2.28,2.28,0,0,1,.69.35,16.44,16.44,0,0,1,1.72,1.22,23.68,23.68,0,0,1,7.74,11.35,18.17,18.17,0,0,1,.5,2A2.61,2.61,0,0,1,159.25,475.11Z" style="fill:#fff"></path><path d="M175.36,460.94a3.32,3.32,0,0,1-1.05.26,24.48,24.48,0,0,1-2.91.34,41.11,41.11,0,0,1-9.63-.68,78.54,78.54,0,0,1-9.36-2.37c-1.17-.37-2.12-.68-2.77-.91a4.63,4.63,0,0,1-1-.41,4.45,4.45,0,0,1,1.06.21l2.82.76c2.37.63,5.65,1.54,9.34,2.21a47.16,47.16,0,0,0,9.53.82C173.84,461.11,175.35,460.86,175.36,460.94Z" style="fill:#fff"></path><path d="M175.85,451.26a3.09,3.09,0,0,1-1,.6,10.38,10.38,0,0,1-3,.82,33.54,33.54,0,0,1-4.58.2c-1.73,0-3.62-.1-5.6-.27a69.12,69.12,0,0,1-10-1.62c-1.27-.3-2.28-.58-3-.8a4.53,4.53,0,0,1-1.06-.39,5.21,5.21,0,0,1,1.11.2l3,.64a91.56,91.56,0,0,0,10,1.45c2,.17,3.84.27,5.55.31a38.3,38.3,0,0,0,4.54-.09A13.13,13.13,0,0,0,175.85,451.26Z" style="fill:#fff"></path><path d="M176.49,441.19a4,4,0,0,1-.93.72,14.81,14.81,0,0,1-2.88,1.41,28.2,28.2,0,0,1-10.45,1.34,70.86,70.86,0,0,1-10.48-1.07c-1.33-.25-2.39-.48-3.12-.67a4.76,4.76,0,0,1-1.13-.34,5.48,5.48,0,0,1,1.17.15l3.14.49a89.29,89.29,0,0,0,10.43.92A30.39,30.39,0,0,0,172.56,443,26.51,26.51,0,0,0,176.49,441.19Z" style="fill:#fff"></path><path d="M176.9,431.78a5.46,5.46,0,0,1-1.11.48c-.72.29-1.79.65-3.13,1.06a62.7,62.7,0,0,1-21.57,2.48c-1.39-.09-2.52-.2-3.29-.32a5.32,5.32,0,0,1-1.19-.22,5.62,5.62,0,0,1,1.21,0c.78.05,1.9.11,3.29.15a77.31,77.31,0,0,0,10.82-.44,75.72,75.72,0,0,0,10.63-2c1.34-.35,2.42-.66,3.17-.89A5.59,5.59,0,0,1,176.9,431.78Z" style="fill:#fff"></path><path d="M178.24,417.18l-.61.18-1.78.44-6.7,1.61-23.37,5.43.19-.26c.49,5.65,1,11.84,1.58,18.32.48,5.71.94,11.2,1.36,16.24l0,.19-.18.06a147.69,147.69,0,0,0-23,10.72,26.66,26.66,0,0,0-6,4.08,4.48,4.48,0,0,0-1.24,2.25,2,2,0,0,1,.11-.67,4.44,4.44,0,0,1,1-1.69c1.14-1.32,3.3-2.67,6-4.23a138.75,138.75,0,0,1,23-10.92l-.16.25c-.43-5-.9-10.53-1.39-16.24-.55-6.47-1.07-12.67-1.54-18.32l0-.21.21-.05,23.41-5.25,6.72-1.46,1.8-.37A2.9,2.9,0,0,1,178.24,417.18Z" style="fill:#263238"></path><path d="M167.93,271.64c0,.52-1.57,35.49-1.57,35.49.81,6.43,4.67,9.94,11.86,10.23l4.59-12.72L182,272.12Z" style="fill:#ffbe9d"></path><path d="M190,264.29l13.2-.57a48.64,48.64,0,0,1,7.9-.51,23.83,23.83,0,0,0,5.66-.33s7.39-.75,8.85,0c2.3,1.19,1.67,3.47-2.35,3.64s-5.87-.09-8.22.45a32,32,0,0,1-7.09.64c-2.26,0-17.72.17-17.72.17C188.75,266.52,190,264.29,190,264.29Z" style="fill:#e0e0e0"></path><path d="M204.12,263.62l-14.12.67s-1.25,2.23.23,3.49c0,0,11.92-.14,14.17-.14Z" style="fill:#455a64"></path><path d="M206.44,265.44v.09a.93.93,0,0,0,.94.83l5.49-.17a.92.92,0,0,0,.89-1h0a.92.92,0,0,0-.93-.86l-5.5.08A.92.92,0,0,0,206.44,265.44Z" style="fill:#fff"></path><path d="M170.11,268.65a5.59,5.59,0,0,1,.48-3.54c.89-1.35,9.13-3.93,13.34-4.08s8-1.13,8.51,1.55c.28,1.65-2.17,2.53-4.08,2.93-1.74.36-11.69,2.91-11.69,2.91S195.68,265,197,267s0,3.23,0,3.23,2.35.85.6,3.26l-1.44.73a1.78,1.78,0,0,1,0,2.61c-1.25,1.57-8.15,5.23-8.15,5.23s.83,2.51-1.57,5.23a78.8,78.8,0,0,0,0,13c.63,5.85-2,16.2-8.26,17.14s-9.41-8.46-9.93-12.12,2.09-8.26,4.28-13.28,2.93-5.44,2.93-5.44a5.75,5.75,0,0,1-2.19-2.61l-.53-1.57s-2.63-.83-2.67-2.92.48-2.62.48-2.62-2.65-1.46-2.37-3.66A12.08,12.08,0,0,1,170.11,268.65Z" style="fill:#ffbe9d"></path><path d="M197.5,269.66a24.07,24.07,0,0,1-3.31.85l-8,1.83-8,1.85a23.37,23.37,0,0,1-3.35.67,20.91,20.91,0,0,1,3.26-1c2-.56,4.86-1.28,8-2s6-1.3,8.07-1.68A20.46,20.46,0,0,1,197.5,269.66Z" style="fill:#eb996e"></path><path d="M196.85,273.92a12.88,12.88,0,0,1-2.55,1.33c-1.62.73-3.89,1.67-6.45,2.57s-4.92,1.58-6.64,2a13.93,13.93,0,0,1-2.82.56,18.67,18.67,0,0,1,2.72-.91c1.69-.52,4-1.26,6.57-2.15s4.83-1.77,6.47-2.42A20,20,0,0,1,196.85,273.92Z" style="fill:#eb996e"></path><path d="M188.8,281.62a7.59,7.59,0,0,1-1.46,1c-.93.54-2.18,1.35-3.68,2.09a11.85,11.85,0,0,0-2,1.06c-.54.41-1,.91-1.41,1.25-.91.73-1.73.6-1.69.53a3.72,3.72,0,0,0,1.45-.81c.39-.35.77-.86,1.35-1.35a10.32,10.32,0,0,1,2.07-1.15c1.45-.72,2.74-1.48,3.72-1.95A4.92,4.92,0,0,1,188.8,281.62Z" style="fill:#eb996e"></path><path d="M185.32,287.53a3.23,3.23,0,0,1-1.3.91,7.4,7.4,0,0,1-7.36-.63c-.8-.57-1.16-1.07-1.12-1.11a9.89,9.89,0,0,1,1.32.8,8.13,8.13,0,0,0,7,.6A9.67,9.67,0,0,1,185.32,287.53Z" style="fill:#eb996e"></path><path d="M176.67,286.88s-.17,0-.47,0a3.58,3.58,0,0,1-1.21-.55,5.45,5.45,0,0,1-1.46-1.46,5,5,0,0,1-.87-2.53l.21.22A3.15,3.15,0,0,1,170,280a6.48,6.48,0,0,1-.19-1.41,2.91,2.91,0,0,1,.57-2l.08.4a6.13,6.13,0,0,1-1.66-1.23A3.36,3.36,0,0,1,168,274a5.88,5.88,0,0,1,.59-3.06,5.82,5.82,0,0,1,1.51-2.33,20,20,0,0,0-1.2,2.45,6,6,0,0,0-.45,2.87,3,3,0,0,0,.72,1.51,5.94,5.94,0,0,0,1.53,1.1l.28.15-.21.24a2.44,2.44,0,0,0-.44,1.62A4.44,4.44,0,0,0,171,281a2.89,2.89,0,0,0,1.92,1.07l.2,0v.2a4.59,4.59,0,0,0,.73,2.33,5.33,5.33,0,0,0,1.29,1.45A7,7,0,0,0,176.67,286.88Z" style="fill:#eb996e"></path><path d="M175.5,286.52c.13.08-1.38,2.93-3.05,6.55s-2.92,6.59-3.06,6.54a7.78,7.78,0,0,1,.61-2c.45-1.23,1.13-2.91,2-4.72s1.69-3.42,2.34-4.55A8.24,8.24,0,0,1,175.5,286.52Z" style="fill:#eb996e"></path><path d="M240.2,286.79c.13.49,5.27,31.83,11.64,36.49s9.79,3.55,11.75,1.59,5.27-4.53,5.76-11.26S271,271,271,271l-17.35.66-2.48,7.65Z" style="fill:#ffbe9d"></path><path d="M268,311.19a12.07,12.07,0,0,0-.87-5.07,21.71,21.71,0,0,0-2.85-4.83c-1.28-1.7-2.75-3.55-4.18-5.56a120.15,120.15,0,0,1-6.82-10.67c-.8-1.41-1.4-2.57-1.81-3.38a7.58,7.58,0,0,1-.58-1.29,8.19,8.19,0,0,1,.76,1.19l2,3.29c1.66,2.77,4,6.55,6.92,10.55,1.43,2,2.87,3.86,4.14,5.59a21,21,0,0,1,2.82,5,10.59,10.59,0,0,1,.7,3.8,6.39,6.39,0,0,1-.08,1C268,311.07,268,311.19,268,311.19Z" style="fill:#eb996e"></path><path d="M224.31,264.75a2.72,2.72,0,0,1-2.26-1.84,1.47,1.47,0,0,1,.12-1.32c.84-1.23,2.78-1.39,5.56-1.84s9.74.06,10.41,0,12.79,2,13.85,3.34.5,4.78.5,4.78a6.34,6.34,0,0,1,1.55,2.62c.78,2-1.16,3.56-1.28,4.89s0,3.17-.55,4.12-3,2.06-3,2.06.67,1.44-1,3.44-2.78,4.29-4.89,4.06-4.38-.5-5.22-2.05a18.13,18.13,0,0,1-1.29-4.56,51,51,0,0,1-6-2.54c-1.22-.8-3.84-2.53-2.61-4.25a2.74,2.74,0,0,1-2.53-1.88c-.26-.91-.09-1,.52-1.51a8.86,8.86,0,0,1,1.84-1.12s-6.45-3.21-6.17-4.57c0,0,4,.18,4.87-1.49Z" style="fill:#ffbe9d"></path><path d="M248.41,267.51a4.1,4.1,0,0,1-.92-.51,19.43,19.43,0,0,0-2.49-1.33,11.09,11.09,0,0,0-4.06-.8c-.79,0-1.62-.09-2.47-.07a23.61,23.61,0,0,0-2.63.33c-3.62.52-7,.92-9.14,1.8a2,2,0,0,0-1.27,2.11,1.79,1.79,0,0,0,.52.84s-.46-.08-.71-.78a1.74,1.74,0,0,1,.09-1.29,2.77,2.77,0,0,1,1.2-1.2c2.28-1,5.6-1.47,9.24-2a24.39,24.39,0,0,1,2.69-.33c.88,0,1.72.05,2.52.11a10.82,10.82,0,0,1,4.17.94,15.14,15.14,0,0,1,2.45,1.5A4.19,4.19,0,0,1,248.41,267.51Z" style="fill:#eb996e"></path><path d="M247.46,273.71a21.15,21.15,0,0,0-2.72-1.43,19.53,19.53,0,0,0-7.26-1.13c-2.91,0-5.56.16-7.49,0a12.25,12.25,0,0,1-2.26-.36,2.32,2.32,0,0,1-.79-.29c0-.09,1.17.24,3.07.28s4.54-.19,7.47-.19a17.74,17.74,0,0,1,7.4,1.31,9.48,9.48,0,0,1,2,1.18C247.28,273.45,247.48,273.68,247.46,273.71Z" style="fill:#eb996e"></path><path d="M232.8,265.31a14,14,0,0,1-6.27-.15,12,12,0,0,1,3.14-.09A12.5,12.5,0,0,1,232.8,265.31Z" style="fill:#eb996e"></path><path d="M244.91,279.47a15.58,15.58,0,0,1-2.46-.45c-1.52-.3-3.61-.66-5.95-.94a29.56,29.56,0,0,1-5.89-1.52,12.31,12.31,0,0,1-2.33-.92,10.83,10.83,0,0,1,2.44.57,39.4,39.4,0,0,0,5.84,1.35,44.44,44.44,0,0,1,6,1.1A9.41,9.41,0,0,1,244.91,279.47Z" style="fill:#eb996e"></path><path d="M246.59,274.18a14.16,14.16,0,0,1-2.72-.49c-1.67-.36-4-.89-6.5-1.37a65.41,65.41,0,0,0-6.56-.9,18.83,18.83,0,0,1-2.74-.27,11.67,11.67,0,0,1,2.76-.1,44.8,44.8,0,0,1,6.64.76c2.56.48,4.84,1.07,6.49,1.52A14.79,14.79,0,0,1,246.59,274.18Z" style="fill:#eb996e"></path><path d="M243.5,285.69c0,.06-.41.28-1.15.2a5.48,5.48,0,0,1-2.56-1.16c-.86-.66-1.57-1.28-2.15-1.64s-1-.51-.95-.58.47-.05,1.13.26a12.88,12.88,0,0,1,2.28,1.54,6.62,6.62,0,0,0,2.31,1.21C243.05,285.69,243.48,285.61,243.5,285.69Z" style="fill:#eb996e"></path><path d="M248.2,285s.2-.26.51-.8a4.16,4.16,0,0,0,.44-1.07,2.67,2.67,0,0,0,0-1.53l0-.09.08,0a12.43,12.43,0,0,0,2.47-1.52,2.17,2.17,0,0,0,.76-1.44,13,13,0,0,0,.15-1.93c0-.34,0-.69.05-1a2.9,2.9,0,0,1,.29-1.11,17.43,17.43,0,0,0,1-2,2.85,2.85,0,0,0,.16-1.12,3.56,3.56,0,0,0-.34-1.13,6.64,6.64,0,0,0-1.33-2.1l-.09-.09v-.11a12,12,0,0,0,.06-3.11,3.34,3.34,0,0,0-.5-1.45,3.53,3.53,0,0,0-1.38-.72,55.32,55.32,0,0,0-7-1.7q-1.84-.36-3.78-.66l-1-.14a5.93,5.93,0,0,0-1-.05l-2-.08c-1.34-.05-2.7-.09-4.07-.1a25.87,25.87,0,0,0-4.13.22c-1.09.17-2.17.31-3.2.57a4.69,4.69,0,0,0-1.4.57,1.48,1.48,0,0,0-.73,1.09,2.36,2.36,0,0,0,1.61,2.1,9.32,9.32,0,0,0,1.48.25l1.51.21.36.05-.17.32a2.46,2.46,0,0,1-1.11,1,5.47,5.47,0,0,1-1.32.42,11.24,11.24,0,0,1-2.64.2l.25-.19c0,.15.16.46.37.68a5.7,5.7,0,0,0,.72.66,19.3,19.3,0,0,0,1.6,1.13c1.1.69,2.21,1.31,3.3,1.88l.4.2-.41.2a9.13,9.13,0,0,0-1.59.91c-.47.36-.83.81-.69,1.32a2.75,2.75,0,0,0,2.38,1.88l.32,0-.19.26a1.45,1.45,0,0,0-.09,1.56,4.21,4.21,0,0,0,1.08,1.29,11.19,11.19,0,0,0,2.67,1.74c1.83.85,3.46,1.47,4.79,2l.06,0v.06a23.26,23.26,0,0,0,.76,3.44c.24.76.44,1.12.42,1.14a5.14,5.14,0,0,1-.53-1.11,20.14,20.14,0,0,1-.87-3.44l.07.09c-1.34-.49-3-1.08-4.84-1.91a11.44,11.44,0,0,1-2.77-1.75A4.73,4.73,0,0,1,228,277.5a1.82,1.82,0,0,1,.11-1.95l.13.3a3.79,3.79,0,0,1-1.66-.63,2.66,2.66,0,0,1-1.08-1.54,1.41,1.41,0,0,1,.15-1,2.81,2.81,0,0,1,.68-.73,9.34,9.34,0,0,1,1.68-1v.4c-1.11-.56-2.23-1.18-3.35-1.88a18.91,18.91,0,0,1-1.65-1.15,7.25,7.25,0,0,1-.78-.7,1.49,1.49,0,0,1-.49-1.11l0-.2H222a11.28,11.28,0,0,0,2.52-.2,3.07,3.07,0,0,0,2.08-1.15l.19.37-1.51-.2a9.28,9.28,0,0,1-1.57-.28,2.86,2.86,0,0,1-2-2.61,1.52,1.52,0,0,1,.32-.87,2.51,2.51,0,0,1,.64-.62,5.28,5.28,0,0,1,1.56-.65c1.08-.27,2.16-.4,3.25-.58a26.07,26.07,0,0,1,4.21-.22c1.38,0,2.75.06,4.09.11l2,.08a5.94,5.94,0,0,1,1,.06l1,.14c1.29.2,2.56.43,3.8.67a56,56,0,0,1,7.06,1.76,6.38,6.38,0,0,1,.82.33,2.65,2.65,0,0,1,.4.22,1.68,1.68,0,0,1,.37.33,3.75,3.75,0,0,1,.57,1.66,12,12,0,0,1-.08,3.24l-.08-.2a6.68,6.68,0,0,1,1.44,2.28,3.76,3.76,0,0,1,.36,1.25,3,3,0,0,1-.19,1.27,16.63,16.63,0,0,1-1,2.07,4.75,4.75,0,0,0-.33,2,13.59,13.59,0,0,1-.18,2,3.53,3.53,0,0,1-.3.9,2.45,2.45,0,0,1-.58.69,12.35,12.35,0,0,1-2.55,1.5l0-.14a2.68,2.68,0,0,1,0,1.66,4.22,4.22,0,0,1-.49,1.08A4,4,0,0,1,248.2,285Z" style="fill:#eb996e"></path></g></svg>